<?xml version="1.0" encoding="UTF-8" standalone="no"?>
<!-- Created with Inkscape (http://www.inkscape.org/) -->

<svg
   version="1.1"
   id="svg2"
   xml:space="preserve"
   width="234.33078"
   height="64.970528"
   viewBox="0 0 234.33078 64.970527"
   sodipodi:docname="marca.svg"
   inkscape:version="1.1.1 (3bf5ae0d25, 2021-09-20)"
   xmlns:inkscape="http://www.inkscape.org/namespaces/inkscape"
   xmlns:sodipodi="http://sodipodi.sourceforge.net/DTD/sodipodi-0.dtd"
   xmlns="http://www.w3.org/2000/svg"
   xmlns:svg="http://www.w3.org/2000/svg"><defs
     id="defs6" /><sodipodi:namedview
     id="namedview4"
     pagecolor="#ffffff"
     bordercolor="#666666"
     borderopacity="1.0"
     inkscape:pageshadow="2"
     inkscape:pageopacity="0.0"
     inkscape:pagecheckerboard="0"
     showgrid="false"
     inkscape:zoom="2.4676165"
     inkscape:cx="118.13019"
     inkscape:cy="32.825198"
     inkscape:window-width="1920"
     inkscape:window-height="1041"
     inkscape:window-x="1920"
     inkscape:window-y="39"
     inkscape:window-maximized="1"
     inkscape:current-layer="g8"
     fit-margin-top="0"
     fit-margin-left="0"
     fit-margin-right="0"
     fit-margin-bottom="0" /><g
     id="g8"
     inkscape:groupmode="layer"
     inkscape:label="ink_ext_XXXXXX"
     transform="matrix(1.3333333,0,0,-1.3333333,-10.376277,161.41238)"><path
       id="path22"
       style="fill:#ed1c2b;fill-opacity:1;fill-rule:evenodd;stroke:none;stroke-width:0.1"
       d="m 175.4003,121.05729 6.177,-38.041996 h 1.953 v -10.6632 h -15.334 v 10.6632 h 1.968 v 3.9993 h -7.107 l -0.009,-3.9993 h 1.962 v -10.6632 h -15.326 v 10.6632 h 1.956 l 6.189,38.041996 z m -6.374,-27.596996 -2.45,15.064996 -2.387,-15.064996 z m -63.235,-21.1055 v 19.3352 l -3.575,0.0062 -0.006,-8.6809 h 1.943 v -10.6632 H 87.558398 v 10.6632 h 2.6672 v 27.392996 h -2.6778 v 10.649 H 112.6093 l 5.137,-5.133 v -15.372 l -4.154,-4.103696 4.134,-4.0981 v -9.3414 h 2.672 v -10.6527 z m -3.619,38.053496 V 99.205594 l 3.631,-0.0063 v 11.200996 l -3.631,0.008 m 35.043,-0.028 v -9.502 h 11.081 v 14.996 l -5.157,5.183 h -16.207 l -5.163,-5.174 V 77.507094 l 5.163,-5.155 h 16.223 l 5.155,5.155 0.006,14.975 c -0.02,0 -11.101,0 -11.101,0 l -0.004,-9.4933 h -3.649 v 27.391496 h 3.653 m -59.166702,10.677 6.1789,-38.041996 h 1.9524 v -10.6632 h -15.3336 v 10.6632 h 1.9672 l -0.0043,3.9993 h -7.1098 l -0.0039,-3.9993 h 1.9648 v -10.6632 h -15.3254 v 10.6632 h 1.9508 l 6.1891,38.041996 z m -6.3742,-27.596996 -2.4488,15.064996 -2.3918,-15.064996 z m -42.4352,-14.2875 -7.4339,20.985096 V 83.015294 h 2.6585 v -10.6839 H 7.825178 v 10.6839 h 2.67692 v 27.395996 h -2.71989 v 10.627 l 15.87499,0.021 5.834,-16.52 5.9059,16.52 15.566,-0.021 v -10.627 h -2.6625 V 83.015294 h 2.6625 v -10.6839 h -16.6426 v 10.6839 h 2.6769 v 17.142596 l -7.7582,-20.985096" /></g></svg>
