<?xml version="1.0" encoding="UTF-8" standalone="no"?>
<!-- Created with Inkscape (http://www.inkscape.org/) -->

<svg
   width="46mm"
   height="41mm"
   viewBox="0 0 46 41"
   version="1.1"
   id="svg1462"
   sodipodi:docname="radiomarca.svg"
   inkscape:version="1.1.1 (3bf5ae0d25, 2021-09-20)"
   xmlns:inkscape="http://www.inkscape.org/namespaces/inkscape"
   xmlns:sodipodi="http://sodipodi.sourceforge.net/DTD/sodipodi-0.dtd"
   xmlns:xlink="http://www.w3.org/1999/xlink"
   xmlns="http://www.w3.org/2000/svg"
   xmlns:svg="http://www.w3.org/2000/svg">
  <sodipodi:namedview
     id="namedview40"
     pagecolor="#ffffff"
     bordercolor="#666666"
     borderopacity="1.0"
     inkscape:pageshadow="2"
     inkscape:pageopacity="0.0"
     inkscape:pagecheckerboard="0"
     inkscape:document-units="mm"
     showgrid="false"
     inkscape:zoom="0.06402836"
     inkscape:cx="-5630.3175"
     inkscape:cy="2358.33"
     inkscape:window-width="1920"
     inkscape:window-height="1041"
     inkscape:window-x="1920"
     inkscape:window-y="39"
     inkscape:window-maximized="1"
     inkscape:current-layer="svg1462" />
  <defs
     id="defs1459">
    <circle
       id="SVGID_1_"
       cx="15"
       cy="15"
       r="15" />
    <linearGradient
       id="linearGradient1896"
       gradientUnits="userSpaceOnUse"
       x1="-449.34"
       y1="280.14001"
       x2="-448.91901"
       y2="278.849"
       gradientTransform="matrix(16.4706,0,0,-16.4706,7414.148,4620)">
      <stop
         offset=".003"
         stop-opacity=".2"
         id="stop1892" />
      <stop
         offset="1"
         stop-opacity="0"
         id="stop1894" />
    </linearGradient>
    <defs
       id="defs1656">
      <circle
         id="circle2170"
         cx="15"
         cy="15"
         r="15" />
    </defs>
    <clipPath
       id="SVGID_2_">
      <use
         xlink:href="#SVGID_1_"
         overflow="visible"
         id="use1658"
         x="0"
         y="0"
         width="100%"
         height="100%" />
    </clipPath>
    <linearGradient
       id="linearGradient1883"
       gradientUnits="userSpaceOnUse"
       x1="14.124"
       y1="8.6429996"
       x2="21.436001"
       y2="31.063999">
      <stop
         offset="0"
         stop-color="#c3c3c3"
         id="stop1879" />
      <stop
         offset="1"
         stop-color="#eee"
         id="stop1881" />
    </linearGradient>
    <linearGradient
       id="a"
       gradientUnits="userSpaceOnUse"
       x1="14.124"
       y1="8.6429996"
       x2="21.436001"
       y2="31.063999">
      <stop
         offset="0"
         stop-color="#8f0000"
         id="stop1869" />
      <stop
         offset="1"
         stop-color="#af0000"
         id="stop1871" />
    </linearGradient>
  </defs>
  <g
     id="g1057"
     transform="translate(100.20551,-861.8673)">
    <path
       fill="none"
       d="m -100.20551,861.8673 h 46 v 41 h -46 z"
       id="path2002" />
    <circle
       fill="#005cb9"
       cx="-77.267509"
       cy="882.36743"
       r="20"
       id="circle2004" />
    <path
       d="m -88.38951,873.1363 v 1.889 c -0.072,0.02 -0.185,0.039 -0.34,0.059 -0.154,0.02 -0.306,0.029 -0.458,0.029 -0.15,0 -0.283,-0.012 -0.398,-0.034 a 0.7,0.7 0 0 1 -0.286,-0.123 0.546,0.546 0 0 1 -0.171,-0.246 1.183,1.183 0 0 1 -0.06,-0.413 v -4.635 c 0,-0.138 0.038,-0.244 0.114,-0.32 a 0.798,0.798 0 0 1 0.31,-0.182 c 0.223,-0.079 0.482,-0.136 0.777,-0.172 0.295,-0.037 0.61,-0.055 0.944,-0.055 0.906,0 1.587,0.191 2.046,0.571 0.459,0.38 0.689,0.896 0.689,1.544 0,0.407 -0.105,0.753 -0.315,1.043 -0.21,0.288 -0.459,0.511 -0.748,0.668 0.236,0.322 0.469,0.624 0.699,0.906 0.229,0.282 0.41,0.538 0.541,0.768 a 0.889,0.889 0 0 1 -0.359,0.503 1.032,1.032 0 0 1 -0.585,0.175 c -0.145,0 -0.269,-0.016 -0.374,-0.049 a 0.907,0.907 0 0 1 -0.275,-0.136 1.065,1.065 0 0 1 -0.217,-0.213 2.687,2.687 0 0 1 -0.187,-0.271 l -0.826,-1.309 h -0.521 z m 0.62,-1.309 c 0.25,0 0.446,-0.064 0.591,-0.192 0.144,-0.128 0.216,-0.316 0.216,-0.566 0,-0.249 -0.08,-0.438 -0.241,-0.565 -0.161,-0.128 -0.415,-0.191 -0.762,-0.191 -0.098,0 -0.178,0 -0.236,0.01 a 3.322,3.322 0 0 0 -0.197,0.03 v 1.475 z m 4.69,-2.617 a 2.08,2.08 0 0 1 0.507,-0.187 c 0.227,-0.059 0.454,-0.089 0.685,-0.089 0.328,0 0.618,0.048 0.87,0.143 0.253,0.096 0.415,0.244 0.488,0.448 0.117,0.341 0.246,0.737 0.384,1.191 a 108.307,108.307 0 0 1 0.815,2.828 c 0.132,0.468 0.247,0.884 0.346,1.245 a 0.824,0.824 0 0 1 -0.355,0.222 1.707,1.707 0 0 1 -0.56,0.083 1.67,1.67 0 0 1 -0.399,-0.04 0.713,0.713 0 0 1 -0.265,-0.118 0.577,0.577 0 0 1 -0.168,-0.207 1.877,1.877 0 0 1 -0.113,-0.295 l -0.177,-0.679 h -1.781 c -0.053,0.197 -0.104,0.4 -0.157,0.611 a 57.89,57.89 0 0 1 -0.157,0.609 1.77,1.77 0 0 1 -0.66,0.118 c -0.335,0 -0.583,-0.058 -0.743,-0.172 a 0.554,0.554 0 0 1 -0.241,-0.478 c 0,-0.092 0.013,-0.184 0.04,-0.276 0.026,-0.091 0.056,-0.2 0.088,-0.325 0.046,-0.177 0.11,-0.396 0.192,-0.659 0.082,-0.262 0.172,-0.546 0.27,-0.851 0.099,-0.306 0.204,-0.619 0.315,-0.94 l 0.314,-0.91 a 34.676,34.676 0 0 1 0.462,-1.272 z m 1.182,1.269 c -0.092,0.275 -0.195,0.582 -0.311,0.92 -0.115,0.337 -0.218,0.68 -0.31,1.028 h 1.22 a 65.662,65.662 0 0 0 -0.541,-1.948 z m 5.546,4.614 h -0.382 c -0.145,0 -0.293,-0.01 -0.449,-0.03 a 7.481,7.481 0 0 1 -0.461,-0.074 2.35,2.35 0 0 1 -0.428,-0.123 c -0.362,-0.138 -0.541,-0.378 -0.541,-0.72 v -4.601 c 0,-0.138 0.038,-0.245 0.113,-0.321 a 0.805,0.805 0 0 1 0.311,-0.182 4.13,4.13 0 0 1 0.895,-0.183 c 0.314,-0.029 0.597,-0.044 0.846,-0.044 0.513,0 0.976,0.062 1.392,0.188 0.416,0.124 0.774,0.315 1.074,0.574 0.297,0.259 0.528,0.584 0.692,0.977 0.164,0.394 0.246,0.859 0.246,1.396 0,0.524 -0.079,0.981 -0.236,1.371 -0.157,0.39 -0.383,0.717 -0.674,0.982 a 2.817,2.817 0 0 1 -1.048,0.594 c -0.409,0.13 -0.858,0.196 -1.35,0.196 z m -0.551,-1.427 a 3.67,3.67 0 0 0 0.56,0.049 c 0.223,0 0.427,-0.032 0.615,-0.098 0.187,-0.066 0.348,-0.167 0.481,-0.304 0.134,-0.137 0.239,-0.315 0.315,-0.535 0.074,-0.219 0.113,-0.482 0.113,-0.79 0,-0.588 -0.139,-1.031 -0.414,-1.329 -0.274,-0.297 -0.643,-0.447 -1.102,-0.447 h -0.28 c -0.096,0 -0.192,0.01 -0.29,0.029 v 3.425 z m 6.166,1.358 c -0.072,0.02 -0.186,0.039 -0.339,0.059 -0.153,0.02 -0.307,0.029 -0.458,0.029 -0.152,0 -0.283,-0.012 -0.398,-0.034 a 0.732,0.732 0 0 1 -0.289,-0.123 0.521,0.521 0 0 1 -0.178,-0.246 1.21,1.21 0 0 1 -0.059,-0.413 v -5.194 c 0.072,-0.014 0.188,-0.032 0.344,-0.055 0.158,-0.022 0.309,-0.036 0.452,-0.036 0.151,0 0.284,0.013 0.399,0.036 a 0.696,0.696 0 0 1 0.289,0.123 0.535,0.535 0 0 1 0.178,0.246 c 0.04,0.105 0.059,0.242 0.059,0.413 z m 0.51,-3.07 c 0,-0.512 0.08,-0.965 0.242,-1.357 0.16,-0.395 0.379,-0.723 0.658,-0.99 0.279,-0.265 0.605,-0.466 0.982,-0.604 a 3.514,3.514 0 0 1 1.226,-0.208 c 0.438,0 0.849,0.069 1.226,0.208 0.377,0.138 0.707,0.339 0.989,0.604 0.281,0.267 0.503,0.595 0.664,0.99 0.16,0.393 0.241,0.846 0.241,1.357 0,0.511 -0.08,0.966 -0.236,1.362 a 2.748,2.748 0 0 1 -0.654,0.994 2.799,2.799 0 0 1 -0.988,0.605 c -0.38,0.138 -0.793,0.207 -1.24,0.207 -0.445,0 -0.859,-0.07 -1.24,-0.212 a 2.767,2.767 0 0 1 -0.982,-0.614 c -0.275,-0.269 -0.492,-0.601 -0.649,-0.994 -0.157,-0.393 -0.239,-0.842 -0.239,-1.348 z m 1.77,0 c 0,0.597 0.122,1.043 0.364,1.338 0.242,0.295 0.568,0.442 0.975,0.442 0.413,0 0.741,-0.147 0.984,-0.442 0.242,-0.295 0.363,-0.741 0.363,-1.338 0,-0.591 -0.119,-1.033 -0.358,-1.328 -0.24,-0.295 -0.565,-0.443 -0.979,-0.443 -0.406,0 -0.732,0.146 -0.979,0.438 -0.247,0.292 -0.37,0.737 -0.37,1.333 z m 11.013,18.063 -19.762,1.118 -19.763,-1.118 a 0.721,0.721 0 0 1 -0.707,-0.56 l -1.837,-12.125 a 0.7,0.7 0 0 1 0.679,-0.854 h 43.253 c 0.445,0 0.775,0.416 0.68,0.854 l -1.836,12.126 a 0.722,0.722 0 0 1 -0.707,0.559 z"
       fill="#ffffff"
       id="path2006" />
    <path
       fill="#005cb9"
       d="m -77.20551,891.4603 h -0.019 l -19.753,-1.117 a 1.04,1.04 0 0 1 -1.015,-0.812 l -0.005,-0.022 -1.834,-12.118 a 1.024,1.024 0 0 1 0.999,-1.237 h 43.253 a 1.026,1.026 0 0 1 1,1.236 l -1.837,12.128 -0.003,0.012 a 1.04,1.04 0 0 1 -1.015,0.812 z m -20.15,-2.063 a 0.4,0.4 0 0 0 0.387,0.295 h 0.019 l 19.744,1.116 19.752,-1.117 h 0.012 a 0.401,0.401 0 0 0 0.387,-0.295 l 1.836,-12.124 0.004,-0.011 a 0.392,0.392 0 0 0 -0.075,-0.32 0.37,0.37 0 0 0 -0.288,-0.139 h -43.255 a 0.372,0.372 0 0 0 -0.288,0.139 0.384,0.384 0 0 0 -0.074,0.32 l 0.004,0.021 z"
       id="path2008" />
    <path
       fill="#e2231a"
       d="m -88.28651,878.4563 h 2.969 v 2.042 h -0.513 v 5.285 h 0.513 v 2.054 h -3.181 v -2.054 h 0.514 v -3.306 l -1.478,4.045 -1.44,-4.045 v 3.306 h 0.513 v 2.054 h -3.219 v -2.054 h 0.513 v -5.285 h -0.527 v -2.042 h 3.082 l 1.126,3.168 z m 9.356,7.327 h 0.375 v 2.054 h -2.93 v -2.054 h 0.389 v -0.775 h -1.353 l -0.013,0.775 h 0.375 v 2.054 h -2.918 v -2.054 h 0.376 l 1.177,-7.339 h 3.344 z m -2.379,-2.018 -0.476,-2.904 -0.451,2.904 z m 8.854,2.004 h 0.516 v 2.067 h -2.793 v -3.743 h -0.677 v 1.676 h 0.363 v 2.067 h -3.169 v -2.067 h 0.5 v -5.284 h -0.5 v -2.028 h 4.796 l 0.964,0.989 v 2.931 l -0.789,0.789 0.789,0.79 z m -2.279,-5.284 h -0.688 v 2.143 h 0.688 z m 7.289,-2.029 0.979,0.989 v 2.893 h -2.268 v -1.816 l -0.688,-0.013 v 5.272 h 0.688 v -1.828 h 2.268 v 2.88 l -0.979,1.004 h -3.244 l -0.953,-1.001 v -7.39 l 0.953,-0.989 z m 7.74,7.327 v 2.054 h -2.918 v -2.054 h 0.376 v -0.775 h -1.354 l -0.012,0.775 h 0.376 v 2.054 h -2.905 v -2.054 h 0.363 l 1.178,-7.339 h 3.344 l 1.177,7.339 z m -2.755,-2.018 -0.476,-2.904 -0.451,2.904 z"
       id="path2010" />
  </g>
</svg>
