<?xml version="1.0" encoding="UTF-8" standalone="no"?>
<svg
   width="219.592"
   height="2450"
   viewBox="0 0 219.592 2450"
   version="1.1"
   id="svg530"
   xmlns:xlink="http://www.w3.org/1999/xlink"
   xmlns="http://www.w3.org/2000/svg"
   xmlns:svg="http://www.w3.org/2000/svg">
  <defs
     id="defs534">
    <defs
       id="defs53">
      <circle
         id="SVGID_1_"
         cx="15"
         cy="15"
         r="15" />
    </defs>
    <clipPath
       id="SVGID_2_">
      <use
         xlink:href="#SVGID_1_"
         overflow="visible"
         id="use55" />
    </clipPath>
    <linearGradient
       xlink:href="#a"
       id="linearGradient1470"
       gradientUnits="userSpaceOnUse"
       x1="14.124"
       y1="8.643"
       x2="21.436"
       y2="31.064"
       gradientTransform="translate(1,731)" />
    <linearGradient
       id="a"
       gradientUnits="userSpaceOnUse"
       x1="14.124"
       y1="8.643"
       x2="21.436"
       y2="31.064">
      <stop
         offset="0"
         stop-color="#8f0000"
         id="stop266" />
      <stop
         offset="1"
         stop-color="#af0000"
         id="stop268" />
    </linearGradient>
    <linearGradient
       xlink:href="#a"
       id="linearGradient1477"
       gradientUnits="userSpaceOnUse"
       x1="14.124"
       y1="8.643"
       x2="21.436"
       y2="31.064"
       gradientTransform="translate(1,767)" />
    <linearGradient
       id="linearGradient280"
       gradientUnits="userSpaceOnUse"
       x1="14.124"
       y1="8.643"
       x2="21.436"
       y2="31.064">
      <stop
         offset="0"
         stop-color="#c3c3c3"
         id="stop276" />
      <stop
         offset="1"
         stop-color="#eee"
         id="stop278" />
    </linearGradient>
    <linearGradient
       xlink:href="#a"
       id="linearGradient1484"
       gradientUnits="userSpaceOnUse"
       x1="14.124"
       y1="8.643"
       x2="21.436"
       y2="31.064"
       gradientTransform="translate(1,803)" />
    <linearGradient
       id="linearGradient293"
       gradientUnits="userSpaceOnUse"
       x1="-449.34"
       y1="280.14"
       x2="-448.919"
       y2="278.849"
       gradientTransform="matrix(16.4706 0 0 -16.4706 7414.148 4620)">
      <stop
         offset=".003"
         stop-opacity=".2"
         id="stop289" />
      <stop
         offset="1"
         stop-opacity="0"
         id="stop291" />
    </linearGradient>
  </defs>
  <path
     d="m 5.177,4.823 8,8 -0.354,0.354 -8,-8 z"
     id="path2"
     style="fill:#666666" />
  <path
     d="m 13.177,5.177 -8,8 -0.354,-0.354 8,-8 z"
     id="path4"
     style="fill:#666666" />
  <path
     d="m 5.177,22.823 8,8 -0.354,0.354 -8,-8 z"
     id="path9"
     style="fill:#ffffff" />
  <path
     d="m 13.177,23.177 -8,8 -0.354,-0.354 8,-8 z"
     id="path11"
     style="fill:#ffffff" />
  <path
     d="m 5.177,40.823 8,8 -0.354,0.354 -8,-8 z"
     id="path16"
     style="fill:#221f1f" />
  <path
     d="m 13.177,41.177 -8,8 -0.354,-0.354 8,-8 z"
     id="path18"
     style="fill:#221f1f" />
  <path
     fill="#797979"
     fill-rule="evenodd"
     d="M 13.143,66 21.607,57.536 19.964,55.893 11.5,64.357 3.036,55.893 1.393,57.536 9.857,66 l -8.464,8.464 1.643,1.643 8.464,-8.464 8.464,8.464 1.643,-1.643 z"
     id="path23" />
  <path
     fill="none"
     d="m 1,79 h 52 v 44 H 1 Z"
     id="path26" />
  <path
     d="m 36.545,112.668 -21.213,-21.214 2.12,-2.12 21.214,21.213 z"
     id="path28" />
  <path
     d="M 15.332,110.547 36.546,89.333 38.668,91.454 17.453,112.67 Z"
     id="path30" />
  <path
     d="m 26.9,138.348 -2.1,1.96 2.38,2.24 H 15.7 v 2.8 h 11.48 l -2.38,2.24 2.1,1.96 5.6,-5.6"
     id="path33"
     style="fill:#ffffff" />
  <path
     d="m 10.24,150.807 c -1.96,-1.82 -2.94,-4.2 -2.94,-6.86 0,-2.66 0.98,-5.04 2.94,-6.86 3.78,-3.78 10.08,-3.78 13.86,0 l 1.96,-1.96 c -4.9,-4.9 -12.88,-4.9 -17.78,0 -2.52,2.24 -3.78,5.46 -3.78,8.82 0,3.36 1.26,6.58 3.64,8.96 2.52,2.38 5.74,3.64 8.96,3.64 3.22,0 6.44,-1.26 8.96,-3.64 l -1.96,-2.1 c -3.92,3.92 -10.08,3.92 -13.86,0 z"
     id="path35"
     style="fill:#ffffff" />
  <path
     fill="none"
     d="m 1,125 h 35 v 38 H 1 Z"
     id="path39" />
  <path
     fill="#ffffff"
     fill-rule="evenodd"
     d="M 15.269,165 H 2.732 C 1.776,165 1,165.775 1,166.732 v 6.75 c 0,0.956 0.776,1.732 1.732,1.732 H 4.75 V 177 l 2.799,-1.786 h 7.72 c 0.956,0 1.731,-0.776 1.731,-1.732 v -6.75 C 17,165.775 16.225,165 15.269,165"
     id="path42" />
  <path
     fill="#666666"
     d="m 5.177,184.823 3.823,3.823 3.823,-3.823 0.354,0.354 L 9,189.354 4.823,185.177 Z"
     id="path45" />
  <path
     fill="#ffffff"
     d="m 5.177,202.735 3.823,3.824 3.823,-3.824 0.354,0.353 L 9,207.266 4.823,203.088 Z"
     id="path48" />
  <circle
     id="a_1_"
     fill="#ffffff"
     cx="16"
     cy="230"
     r="15" />
  <path
     fill="#1100a5"
     d="m -1.96,215 h 15.493 v 16.432 H -1.96 Z"
     id="path58" />
  <path
     fill="#ff0000"
     d="m 18.122,233.723 16.032,0.066 v -7.156 H 21.098 l -10.822,7.056 3.01,0.012 v 13.074 h 4.835 z m -7.74,2.297 H 6.646 l -5.645,3.709 1.606,1.626 z"
     id="path60" />
  <path
     fill="#ff0000"
     d="m 24.29,236.02 h 3.95 l 5.968,3.709 -1.698,1.626 z"
     id="path62" />
  <path
     fill="#1100a5"
     d="m 11.758,236.217 -8.636,5.583 8.498,5.323 z"
     id="path64" />
  <path
     fill="#d8d8d8"
     d="m 2.777,228.433 -0.551,0.401 0.211,-0.648 -0.552,-0.4 0.682,0.001 0.21,-0.649 0.21,0.649 0.681,-0.001 -0.551,0.4 0.211,0.648 z"
     id="path66" />
  <path
     fill="#ffffff"
     d="m 11.758,216.838 -0.552,0.401 0.212,-0.648 -0.552,-0.4 h 0.681 l 0.211,-0.648 0.21,0.648 h 0.681 l -0.552,0.4 0.212,0.648 z m 0,3.306 -0.552,0.401 0.212,-0.648 -0.552,-0.4 h 0.681 l 0.211,-0.648 0.21,0.648 h 0.681 l -0.552,0.4 0.212,0.648 z m 0,3.355 -0.552,0.401 0.212,-0.648 -0.552,-0.4 0.681,0.001 0.211,-0.649 0.21,0.649 0.681,-0.001 -0.552,0.4 0.212,0.648 z m 0,3.306 -0.552,0.401 0.212,-0.648 -0.552,-0.4 0.681,0.001 0.211,-0.649 0.21,0.649 0.681,-0.001 -0.552,0.4 0.212,0.648 z m 0,3.306 -0.552,0.401 0.212,-0.648 -0.552,-0.4 h 0.681 l 0.211,-0.648 0.21,0.648 h 0.681 l -0.552,0.4 0.212,0.648 z m -3.603,-13.273 -0.551,0.401 0.211,-0.648 -0.552,-0.4 h 0.682 l 0.21,-0.648 0.21,0.648 h 0.682 l -0.552,0.4 0.211,0.648 z m 0,3.306 -0.551,0.401 0.211,-0.648 -0.552,-0.4 h 0.682 l 0.21,-0.648 0.21,0.648 h 0.682 l -0.552,0.4 0.211,0.648 z m 0,3.355 -0.551,0.401 0.211,-0.648 -0.552,-0.4 0.682,0.001 0.21,-0.649 0.21,0.649 0.682,-0.001 -0.552,0.4 0.211,0.648 z m 0,3.306 -0.551,0.401 0.211,-0.648 -0.552,-0.4 0.682,0.001 0.21,-0.649 0.21,0.649 0.682,-0.001 -0.552,0.4 0.211,0.648 z m 0,3.306 -0.551,0.401 0.211,-0.648 -0.552,-0.4 h 0.682 l 0.21,-0.648 0.21,0.648 h 0.682 l -0.552,0.4 0.211,0.648 z m -3.553,-9.967 -0.551,0.401 0.212,-0.648 -0.552,-0.4 h 0.681 l 0.21,-0.648 0.21,0.648 h 0.682 l -0.552,0.4 0.212,0.648 z m 0,3.355 -0.551,0.401 0.212,-0.648 -0.552,-0.4 0.681,0.001 0.21,-0.649 0.21,0.649 0.682,-0.001 -0.552,0.4 0.212,0.648 z m 0,3.306 -0.551,0.401 0.212,-0.648 -0.552,-0.4 0.681,0.001 0.21,-0.649 0.21,0.649 0.682,-0.001 -0.552,0.4 0.212,0.648 z m 0,3.306 -0.551,0.401 0.212,-0.648 -0.552,-0.4 h 0.681 l 0.21,-0.648 0.21,0.648 h 0.682 l -0.552,0.4 0.212,0.648 z m -3.601,-3.306 -0.552,0.401 0.212,-0.648 -0.552,-0.4 0.681,0.001 0.211,-0.649 0.21,0.649 0.681,-0.001 -0.552,0.4 0.212,0.648 z m 0,3.306 -0.552,0.401 0.212,-0.648 -0.552,-0.4 H 0.79 l 0.211,-0.648 0.21,0.648 h 0.681 l -0.552,0.4 0.212,0.648 z m 1.776,-8.29 -0.551,0.402 0.211,-0.649 -0.552,-0.4 0.682,0.001 0.21,-0.648 0.21,0.648 0.681,-0.001 -0.551,0.4 0.211,0.649 z m 0,3.306 -0.551,0.401 0.211,-0.648 -0.552,-0.4 0.682,0.001 0.21,-0.649 0.21,0.649 0.681,-0.001 -0.551,0.4 0.211,0.648 z m 3.602,-6.661 -0.551,0.401 0.211,-0.648 -0.552,-0.4 0.682,0.001 0.21,-0.649 0.21,0.649 0.681,-0.001 -0.551,0.4 0.211,0.648 z m 0,3.355 -0.551,0.402 0.211,-0.649 -0.552,-0.4 0.682,0.001 0.21,-0.648 0.21,0.648 0.681,-0.001 -0.551,0.4 0.211,0.649 z m 0,3.306 -0.551,0.401 0.211,-0.648 -0.552,-0.4 0.682,0.001 0.21,-0.649 0.21,0.649 0.681,-0.001 -0.551,0.4 0.211,0.648 z m 0,3.306 -0.551,0.401 0.211,-0.648 -0.552,-0.4 0.682,0.001 0.21,-0.649 0.21,0.649 0.681,-0.001 -0.551,0.4 0.211,0.648 z m 3.602,-9.967 -0.552,0.401 0.212,-0.648 -0.552,-0.4 H 9.77 l 0.211,-0.648 0.21,0.648 h 0.681 l -0.552,0.4 0.212,0.648 z m 0,3.355 -0.552,0.401 0.212,-0.648 -0.552,-0.4 0.681,0.001 0.211,-0.649 0.21,0.649 0.681,-0.001 -0.552,0.4 0.212,0.648 z m 0,3.306 -0.552,0.401 0.212,-0.648 -0.552,-0.4 0.681,0.001 0.211,-0.649 0.21,0.649 0.681,-0.001 -0.552,0.4 0.212,0.648 z m 0,3.306 -0.552,0.401 0.212,-0.648 -0.552,-0.4 0.681,0.001 0.211,-0.649 0.21,0.649 0.681,-0.001 -0.552,0.4 0.212,0.648 z"
     id="path68" />
  <path
     fill="#1100a5"
     d="m 19.602,236.217 8.634,5.583 -8.496,5.323 z"
     id="path70" />
  <path
     fill="#d50000"
     d="M 13.533,215.049 H 26.51 v 2.368 H 13.533 Z m 0,4.737 h 15.74 v 2.368 h -15.74 z m 0,4.49 h 11.349 l -3.777,2.369 h -7.572 z m -14.555,9.425 h 11.348 l -3.776,2.367 h -7.572 z m 14.557,-4.688 h 3.897 l -3.606,2.369 h -0.291 z"
     id="path72" />
  <path
     fill="#3b5998"
     d="m 18.22,270.875 v -7.185 h 2.415 l 0.359,-2.797 H 18.22 v -1.789 c 0,-0.809 0.226,-1.363 1.388,-1.363 h 1.484 v -2.507 a 19.48,19.48 0 0 0 -2.16,-0.109 c -2.141,0 -3.602,1.309 -3.602,3.705 v 2.067 h -2.421 v 2.799 h 2.421 v 7.178 h 2.89 z"
     id="path77" />
  <path
     fill="#ffffff"
     d="m 18.22,304.875 v -7.185 h 2.415 l 0.359,-2.797 H 18.22 v -1.789 c 0,-0.809 0.226,-1.363 1.388,-1.363 h 1.484 v -2.507 a 19.48,19.48 0 0 0 -2.16,-0.109 c -2.141,0 -3.602,1.309 -3.602,3.705 v 2.067 h -2.421 v 2.799 h 2.421 v 7.178 h 2.89 z"
     id="path80" />
  <path
     fill="#44619d"
     d="m 14.094,333.575 v -5.647 h 1.896 l 0.283,-2.198 h -2.18 v -1.406 c 0,-0.636 0.176,-1.07 1.09,-1.07 h 1.168 v -1.974 a 15.312,15.312 0 0 0 -1.698,-0.085 c -1.682,0 -2.83,1.03 -2.83,2.912 v 1.624 H 9.92 v 2.2 h 1.902 v 5.64 h 2.272 z"
     id="path83" />
  <path
     fill="#ffffff"
     d="m 14.094,360.575 v -5.647 h 1.896 l 0.283,-2.198 h -2.18 v -1.406 c 0,-0.636 0.176,-1.07 1.09,-1.07 h 1.168 v -1.974 a 15.312,15.312 0 0 0 -1.698,-0.085 c -1.682,0 -2.83,1.03 -2.83,2.912 v 1.624 H 9.92 v 2.2 h 1.902 v 5.64 h 2.272 z"
     id="path86" />
  <path
     fill="#686868"
     d="M 4,384.332 H 22 V 387 H 4 Z"
     id="path89" />
  <path
     fill="#8e8e8e"
     d="m 4,381 h 18 v 3.332 H 4 Z"
     id="path91" />
  <path
     fill="#b2b2b2"
     d="m 4,375 h 18 v 6 H 4 Z"
     id="path93" />
  <path
     fill="#ffffff"
     d="m 3,374 v 14 h 20 v -14 z m 19,10.332 V 387 H 4 v -12 h 18 z"
     id="path95" />
  <path
     fill="#ffffff"
     d="m 22,375 v 12 H 4 v -12 z"
     id="path97" />
  <path
     fill="#74acdf"
     d="m 22,375 v 4 H 4 v -4 z m 0,8 v 4 H 4 v -4 z"
     id="path99" />
  <path
     fill="#f6b40e"
     d="m 13,379.667 a 1.3335,1.3335 0 1 1 0,2.667 1.3335,1.3335 0 0 1 0,-2.667 z"
     id="path102" />
  <path
     fill="#ffffff"
     d="m 22,375 v 12 H 4 v -12 z m 1,-1 H 3 v 14 h 20 z"
     id="path104" />
  <path
     fill="#686868"
     d="M 4,410.332 H 22 V 413 H 4 Z"
     id="path108" />
  <path
     fill="#8e8e8e"
     d="m 4,407 h 18 v 3.332 H 4 Z"
     id="path110" />
  <path
     fill="#b2b2b2"
     d="m 4,401 h 18 v 6 H 4 Z"
     id="path112" />
  <path
     fill="#ffffff"
     d="m 3,400 v 14 h 20 v -14 z m 19,10.332 V 413 H 4 v -12 h 18 z"
     id="path114" />
  <path
     fill="#ffffff"
     d="m 22,401 v 12 H 4 v -12 z"
     id="path116" />
  <path
     fill="#a1a1a1"
     d="m 22,401 v 4 H 4 v -4 z m 0,8 v 4 H 4 v -4 z"
     id="path118" />
  <path
     fill="#b6b6b6"
     d="m 13,405.667 a 1.3335,1.3335 0 1 1 0,2.667 1.3335,1.3335 0 0 1 0,-2.667 z"
     id="path120" />
  <path
     fill="#ffffff"
     d="m 22,401 v 12 H 4 v -12 z m 1,-1 H 3 v 14 h 20 z"
     id="path122" />
  <path
     fill="#3c9242"
     d="m 4,427 h 18 v 12 H 4 Z"
     id="path125" />
  <path
     fill="#ffc400"
     d="m 19.873,433 -6.826,4.574 -6.92,-4.574 6.826,-4.574 z"
     id="path127" />
  <circle
     fill="#2d146e"
     cx="12.999"
     cy="433"
     r="2.8959999"
     id="circle129" />
  <path
     fill="#ffffff"
     d="m 11.506,431.61 c -0.37,0 -0.732,0.038 -1.087,0.098 a 2.807,2.807 0 0 0 -0.225,0.604 5.957,5.957 0 0 1 5.539,1.608 2.85,2.85 0 0 0 0.133,-0.624 6.485,6.485 0 0 0 -4.36,-1.686 z"
     id="path131" />
  <path
     fill="#ffffff"
     d="m 22,427 v 12 H 4 v -12 h 18 m 1,-1 H 3 v 14 h 20 z"
     id="path133" />
  <path
     fill="#454545"
     d="m 4,453 h 18 v 12 H 4 Z"
     id="path136" />
  <path
     fill="#c0c0c0"
     d="m 19.873,459 -6.826,4.574 -6.92,-4.574 6.826,-4.574 z"
     id="path138" />
  <circle
     fill="#454545"
     cx="12.999"
     cy="459"
     r="2.8959999"
     id="circle140" />
  <path
     fill="#c0c0c0"
     d="m 11.506,457.61 c -0.37,0 -0.732,0.038 -1.087,0.098 a 2.807,2.807 0 0 0 -0.225,0.604 5.957,5.957 0 0 1 5.539,1.608 2.85,2.85 0 0 0 0.133,-0.624 6.485,6.485 0 0 0 -4.36,-1.686 z"
     id="path142" />
  <path
     fill="#eeeeee"
     d="m 22,453 v 12 H 4 v -12 h 18 m 1,-1 H 3 v 14 h 20 z"
     id="path144" />
  <path
     fill="#ffffff"
     d="m 22,453 v 12 H 4 v -12 h 18 m 1,-1 H 3 v 14 h 20 z"
     id="path146" />
  <path
     fill="#ce1126"
     d="M 4,488.332 H 22 V 491 H 4 Z"
     id="path149" />
  <path
     fill="#003893"
     d="m 4,485 h 18 v 3.332 H 4 Z"
     id="path151" />
  <path
     fill="#fcd116"
     d="m 4,479 h 18 v 6 H 4 Z"
     id="path153" />
  <path
     fill="#ffffff"
     d="m 22,479 v 12 H 4 v -12 h 18 m 1,-1 H 3 v 14 h 20 z"
     id="path155" />
  <path
     fill="#686868"
     d="M 4,514.332 H 22 V 517 H 4 Z"
     id="path158" />
  <path
     fill="#8e8e8e"
     d="m 4,511 h 18 v 3.332 H 4 Z"
     id="path160" />
  <path
     fill="#b2b2b2"
     d="m 4,505 h 18 v 6 H 4 Z"
     id="path162" />
  <path
     fill="#ffffff"
     d="m 3,504 v 14 h 20 v -14 z m 19,10.332 V 517 H 4 v -12 h 18 z"
     id="path164" />
  <circle
     cx="13"
     cy="537"
     r="10"
     fill="#ffffff"
     id="circle167" />
  <circle
     cx="13"
     cy="537"
     r="8.5"
     fill="#aed6f1"
     id="circle169" />
  <path
     d="m 17.116,532.003 0.018,0.134 -0.2,0.042 -0.027,0.284 h 0.24 l 0.319,-0.03 0.164,-0.197 -0.174,-0.067 -0.096,-0.11 -0.144,-0.234 -0.069,-0.33 -0.272,0.056 -0.075,0.116 v 0.131 l 0.131,0.089 z"
     id="path171"
     style="fill:#34495e" />
  <path
     d="m 16.886,532.113 0.013,-0.178 -0.158,-0.069 -0.222,0.051 -0.165,0.265 v 0.172 h 0.192 z m -4.573,0.758 -0.049,0.126 h -0.236 v 0.122 h 0.056 l 0.008,0.06 0.146,-0.012 0.091,-0.056 0.023,-0.113 0.117,-0.01 0.047,-0.095 -0.107,-0.022 z m -0.609,0.222 -0.009,0.119 0.171,-0.014 0.018,-0.12 -0.103,-0.081 z"
     id="path173"
     style="fill:#34495e" />
  <path
     d="m 21.998,536.907 a 8.826,8.826 0 0 0 -0.635,-3.233 l -0.068,-0.172 A 9.003,9.003 0 0 0 19.466,530.747 8.978,8.978 0 0 0 13,528 8.961,8.961 0 0 0 6.907,530.384 8.91,8.91 0 0 0 5.878,531.508 8.948,8.948 0 0 0 4,537 c 0,4.963 4.038,9 9,9 3.491,0 6.522,-2 8.013,-4.911 A 8.971,8.971 0 0 0 22,537 Z m -1.694,-3.596 0.053,-0.059 c 0.068,0.133 0.133,0.268 0.193,0.404 l -0.085,-0.003 -0.161,0.022 z m -1.301,-1.572 0.002,-0.401 a 8.2,8.2 0 0 1 0.408,0.464 l -0.163,0.24 -0.566,-0.004 -0.036,-0.118 z M 8.147,530.74 v -0.014 h 0.18 l 0.016,-0.063 h 0.295 v 0.128 l -0.084,0.114 H 8.146 Z m 0.288,0.402 c 0,0 0.181,-0.031 0.195,-0.031 0.016,0 0,0.179 0,0.179 l -0.406,0.027 -0.077,-0.092 z m 12.443,3.573 h -0.659 l -0.401,-0.299 -0.422,0.041 v 0.258 h -0.134 l -0.145,-0.103 -0.731,-0.185 v -0.474 l -0.927,0.072 -0.288,0.154 h -0.367 l -0.18,-0.018 -0.447,0.248 v 0.466 l -0.914,0.66 0.076,0.281 h 0.186 l -0.049,0.267 -0.13,0.048 -0.007,0.7 0.789,0.9 h 0.344 l 0.021,-0.056 h 0.617 l 0.179,-0.165 h 0.35 l 0.192,0.193 0.522,0.054 -0.07,0.694 0.58,1.023 -0.306,0.582 0.021,0.275 0.24,0.24 v 0.66 l 0.316,0.425 v 0.549 h 0.271 a 8.25,8.25 0 0 1 -6.407,3.054 c -4.552,0 -8.257,-3.705 -8.257,-8.26 0,-1.146 0.234,-2.239 0.658,-3.232 v -0.257 l 0.296,-0.358 c 0.103,-0.194 0.212,-0.383 0.329,-0.566 l 0.014,0.149 -0.342,0.416 c -0.107,0.2 -0.207,0.405 -0.297,0.616 v 0.47 l 0.344,0.165 v 0.654 l 0.329,0.562 0.268,0.041 0.034,-0.192 -0.315,-0.488 -0.062,-0.473 h 0.186 l 0.078,0.487 0.455,0.666 -0.117,0.214 0.291,0.445 0.721,0.178 v -0.116 l 0.287,0.041 -0.028,0.206 0.227,0.041 0.351,0.096 0.494,0.563 0.632,0.047 0.061,0.516 -0.432,0.301 -0.02,0.46 -0.063,0.281 0.625,0.783 0.046,0.268 c 0,0 0.227,0.062 0.255,0.062 0.028,0 0.509,0.364 0.509,0.364 v 1.414 l 0.17,0.048 -0.115,0.65 0.287,0.385 -0.053,0.646 0.381,0.67 0.489,0.427 0.491,0.01 0.049,-0.159 -0.361,-0.304 0.021,-0.151 0.065,-0.185 0.013,-0.189 -0.245,-0.007 -0.123,-0.154 0.203,-0.195 0.027,-0.148 -0.227,-0.064 0.014,-0.138 0.323,-0.049 0.491,-0.235 0.164,-0.302 0.516,-0.659 -0.117,-0.515 0.158,-0.274 0.473,0.015 0.318,-0.252 0.104,-0.994 0.354,-0.45 0.063,-0.289 -0.323,-0.103 -0.213,-0.349 -0.728,-0.009 -0.576,-0.22 -0.027,-0.411 -0.193,-0.336 -0.521,-0.008 -0.301,-0.473 -0.268,-0.131 -0.014,0.145 -0.487,0.029 -0.179,-0.249 -0.508,-0.103 -0.42,0.484 -0.659,-0.111 -0.047,-0.743 -0.482,-0.083 0.193,-0.364 -0.055,-0.209 -0.632,0.422 -0.397,-0.048 -0.142,-0.311 0.088,-0.32 0.219,-0.404 0.504,-0.255 0.974,-0.001 -0.002,0.298 0.35,0.162 -0.028,-0.508 0.252,-0.254 0.509,-0.333 0.036,-0.236 0.508,-0.529 0.539,-0.299 -0.046,-0.04 0.365,-0.344 0.135,0.036 0.061,0.077 0.139,-0.154 0.035,-0.015 -0.152,-0.021 -0.154,-0.051 v -0.15 l 0.082,-0.067 h 0.18 l 0.082,0.037 0.072,0.144 0.087,-0.013 v -0.013 l 0.025,0.008 0.253,-0.039 0.035,-0.124 0.143,0.037 v 0.133 l -0.133,0.093 0.02,0.146 0.459,0.142 v 0.006 l 0.106,-0.009 0.007,-0.199 -0.363,-0.165 -0.022,-0.096 0.303,-0.104 0.014,-0.288 -0.317,-0.192 -0.02,-0.487 -0.433,0.212 h -0.158 l 0.042,-0.37 -0.589,-0.139 -0.243,0.184 v 0.561 l -0.438,0.139 -0.177,0.367 -0.189,0.031 v -0.468 l -0.412,-0.057 -0.205,-0.134 -0.083,-0.303 0.735,-0.432 0.361,-0.109 0.036,0.242 0.2,-0.011 0.016,-0.121 0.21,-0.03 0.004,-0.043 -0.091,-0.037 -0.02,-0.129 0.259,-0.021 0.155,-0.162 0.009,-0.012 h 0.002 l 0.047,-0.049 0.543,-0.068 0.239,0.204 -0.629,0.335 0.8,0.188 0.104,-0.268 H 13.3 l 0.124,-0.233 -0.248,-0.062 V 530.3 l -0.775,-0.344 -0.535,0.062 -0.303,0.158 0.021,0.385 -0.316,-0.048 -0.049,-0.213 0.302,-0.275 -0.549,-0.027 -0.158,0.047 -0.068,0.185 0.206,0.035 -0.041,0.206 -0.35,0.021 -0.054,0.137 -0.508,0.014 c 0,0 -0.014,-0.288 -0.035,-0.288 l 0.398,-0.007 0.302,-0.295 -0.165,-0.083 -0.219,0.213 -0.365,-0.021 -0.219,-0.302 H 9.229 l -0.487,0.364 h 0.446 l 0.041,0.131 -0.116,0.107 0.495,0.014 0.074,0.178 -0.556,-0.02 -0.026,-0.137 -0.35,-0.076 -0.186,-0.103 -0.417,0.003 A 8.22,8.22 0 0 1 13,528.74 c 2.089,0 3.997,0.78 5.452,2.063 l -0.098,0.176 -0.381,0.149 -0.16,0.174 0.037,0.203 0.196,0.027 0.118,0.296 0.34,-0.136 0.055,0.396 h -0.102 l -0.277,-0.041 -0.309,0.053 -0.299,0.422 -0.427,0.067 -0.063,0.365 0.181,0.043 -0.053,0.235 -0.424,-0.086 -0.39,0.086 -0.082,0.217 0.067,0.454 0.228,0.107 0.384,-0.003 0.259,-0.022 0.078,-0.207 0.404,-0.525 0.268,0.054 0.262,-0.237 0.049,0.185 0.644,0.436 -0.077,0.106 -0.291,-0.016 0.111,0.159 0.18,0.039 0.209,-0.088 -0.005,-0.251 0.092,-0.047 -0.074,-0.079 -0.43,-0.24 -0.112,-0.319 h 0.357 l 0.114,0.113 0.309,0.265 0.014,0.321 0.318,0.34 0.119,-0.465 0.221,-0.121 0.042,0.381 0.216,0.237 0.43,-0.008 c 0.084,0.214 0.158,0.433 0.225,0.655 z m -11.969,-2.626 0.216,-0.103 0.196,0.047 -0.068,0.262 -0.211,0.067 z m 1.147,0.618 v 0.17 H 9.563 l -0.185,-0.052 0.045,-0.119 0.238,-0.098 h 0.324 v 0.098 h 0.071 z m 0.228,0.237 v 0.165 l -0.124,0.079 -0.154,0.029 v -0.273 z m -0.139,-0.067 v -0.196 l 0.17,0.155 z m 0.077,0.396 v 0.161 l -0.118,0.118 H 9.841 l 0.041,-0.18 0.125,-0.011 0.025,-0.063 z M 9.567,532.944 H 9.84 l -0.35,0.489 -0.143,-0.078 0.031,-0.206 z m 1.118,0.273 v 0.16 h -0.262 l -0.072,-0.104 v -0.149 h 0.021 z m -0.243,-0.22 0.075,-0.08 0.126,0.08 -0.101,0.083 z m 10.57,2.135 0.026,-0.03 0.031,0.141 z"
     id="path175"
     style="fill:#34495e" />
  <path
     d="m 5.399,533.51 v 0.258 c 0.09,-0.21 0.189,-0.415 0.297,-0.616 z"
     id="path177"
     style="fill:#34495e" />
  <circle
     cx="13"
     cy="563"
     r="10"
     fill="#ffffff"
     id="circle182" />
  <circle
     cx="13"
     cy="563"
     r="8.5"
     fill="#cdcdcd"
     id="circle184" />
  <path
     d="m 17.116,558.003 0.018,0.134 -0.2,0.042 -0.027,0.284 h 0.24 l 0.319,-0.03 0.164,-0.197 -0.174,-0.067 -0.096,-0.11 -0.144,-0.234 -0.069,-0.33 -0.272,0.056 -0.075,0.116 v 0.131 l 0.131,0.089 z"
     id="path186"
     style="fill:#454545" />
  <path
     d="m 16.886,558.113 0.013,-0.178 -0.158,-0.069 -0.222,0.051 -0.165,0.265 v 0.172 h 0.192 z m -4.573,0.758 -0.049,0.126 h -0.236 v 0.122 h 0.056 l 0.008,0.06 0.146,-0.012 0.091,-0.056 0.023,-0.113 0.117,-0.01 0.047,-0.095 -0.107,-0.022 z m -0.609,0.222 -0.009,0.119 0.171,-0.014 0.018,-0.12 -0.103,-0.081 z"
     id="path188"
     style="fill:#454545" />
  <path
     d="m 21.998,562.907 a 8.826,8.826 0 0 0 -0.635,-3.233 l -0.068,-0.172 A 9.003,9.003 0 0 0 19.466,556.747 8.978,8.978 0 0 0 13,554 8.961,8.961 0 0 0 6.907,556.384 8.91,8.91 0 0 0 5.878,557.508 8.948,8.948 0 0 0 4,563 c 0,4.963 4.038,9 9,9 3.491,0 6.522,-2 8.013,-4.911 A 8.971,8.971 0 0 0 22,563 Z m -1.694,-3.596 0.053,-0.059 c 0.068,0.133 0.133,0.268 0.193,0.404 l -0.085,-0.003 -0.161,0.022 z m -1.301,-1.572 0.002,-0.401 a 8.2,8.2 0 0 1 0.408,0.464 l -0.163,0.24 -0.566,-0.004 -0.036,-0.118 z M 8.147,556.74 v -0.014 h 0.18 l 0.016,-0.063 h 0.295 v 0.128 l -0.084,0.114 H 8.146 Z m 0.288,0.402 c 0,0 0.181,-0.031 0.195,-0.031 0.016,0 0,0.179 0,0.179 l -0.406,0.027 -0.077,-0.092 z m 12.443,3.573 h -0.659 l -0.401,-0.299 -0.422,0.041 v 0.258 h -0.134 l -0.145,-0.103 -0.731,-0.185 v -0.474 l -0.927,0.072 -0.288,0.154 h -0.367 l -0.18,-0.018 -0.447,0.248 v 0.466 l -0.914,0.66 0.076,0.281 h 0.186 l -0.049,0.267 -0.13,0.048 -0.007,0.7 0.789,0.9 h 0.344 l 0.021,-0.056 h 0.617 l 0.179,-0.165 h 0.35 l 0.192,0.193 0.522,0.054 -0.07,0.694 0.58,1.023 -0.306,0.582 0.021,0.275 0.24,0.24 v 0.66 l 0.316,0.425 v 0.549 h 0.271 a 8.25,8.25 0 0 1 -6.407,3.054 c -4.552,0 -8.257,-3.705 -8.257,-8.26 0,-1.146 0.234,-2.239 0.658,-3.232 v -0.257 l 0.296,-0.358 c 0.103,-0.194 0.212,-0.383 0.329,-0.566 l 0.014,0.149 -0.342,0.416 c -0.107,0.2 -0.207,0.405 -0.297,0.616 v 0.47 l 0.344,0.165 v 0.654 l 0.329,0.562 0.268,0.041 0.034,-0.192 -0.315,-0.488 -0.062,-0.473 h 0.186 l 0.078,0.487 0.455,0.666 -0.117,0.214 0.291,0.445 0.721,0.178 v -0.116 l 0.287,0.041 -0.028,0.206 0.227,0.041 0.351,0.096 0.494,0.563 0.632,0.047 0.061,0.516 -0.432,0.301 -0.02,0.46 -0.063,0.281 0.625,0.783 0.046,0.268 c 0,0 0.227,0.062 0.255,0.062 0.028,0 0.509,0.364 0.509,0.364 v 1.414 l 0.17,0.048 -0.115,0.65 0.287,0.385 -0.053,0.646 0.381,0.67 0.489,0.427 0.491,0.01 0.049,-0.159 -0.361,-0.304 0.021,-0.151 0.065,-0.185 0.013,-0.189 -0.245,-0.007 -0.123,-0.154 0.203,-0.195 0.027,-0.148 -0.227,-0.064 0.014,-0.138 0.323,-0.049 0.491,-0.235 0.164,-0.302 0.516,-0.659 -0.117,-0.515 0.158,-0.274 0.473,0.015 0.318,-0.252 0.104,-0.994 0.354,-0.45 0.063,-0.289 -0.323,-0.103 -0.213,-0.349 -0.728,-0.009 -0.576,-0.22 -0.027,-0.411 -0.193,-0.336 -0.521,-0.008 -0.301,-0.473 -0.268,-0.131 -0.014,0.145 -0.487,0.029 -0.179,-0.249 -0.508,-0.103 -0.42,0.484 -0.659,-0.111 -0.047,-0.743 -0.482,-0.083 0.193,-0.364 -0.055,-0.209 -0.632,0.422 -0.397,-0.048 -0.142,-0.311 0.088,-0.32 0.219,-0.404 0.504,-0.255 0.974,-0.001 -0.002,0.298 0.35,0.162 -0.028,-0.508 0.252,-0.254 0.509,-0.333 0.036,-0.236 0.508,-0.529 0.539,-0.299 -0.046,-0.04 0.365,-0.344 0.135,0.036 0.061,0.077 0.139,-0.154 0.035,-0.015 -0.152,-0.021 -0.154,-0.051 v -0.15 l 0.082,-0.067 h 0.18 l 0.082,0.037 0.072,0.144 0.087,-0.013 v -0.013 l 0.025,0.008 0.253,-0.039 0.035,-0.124 0.143,0.037 v 0.133 l -0.133,0.093 0.02,0.146 0.459,0.142 v 0.006 l 0.106,-0.009 0.007,-0.199 -0.363,-0.165 -0.022,-0.096 0.303,-0.104 0.014,-0.288 -0.317,-0.192 -0.02,-0.487 -0.433,0.212 h -0.158 l 0.042,-0.37 -0.589,-0.139 -0.243,0.184 v 0.561 l -0.438,0.139 -0.177,0.367 -0.189,0.031 v -0.468 l -0.412,-0.057 -0.205,-0.134 -0.083,-0.303 0.735,-0.432 0.361,-0.109 0.036,0.242 0.2,-0.011 0.016,-0.121 0.21,-0.03 0.004,-0.043 -0.091,-0.037 -0.02,-0.129 0.259,-0.021 0.155,-0.162 0.009,-0.012 h 0.002 l 0.047,-0.049 0.543,-0.068 0.239,0.204 -0.629,0.335 0.8,0.188 0.104,-0.268 H 13.3 l 0.124,-0.233 -0.248,-0.062 V 556.3 l -0.775,-0.344 -0.535,0.062 -0.303,0.158 0.021,0.385 -0.316,-0.048 -0.049,-0.213 0.302,-0.275 -0.549,-0.027 -0.158,0.047 -0.068,0.185 0.206,0.035 -0.041,0.206 -0.35,0.021 -0.054,0.137 -0.508,0.014 c 0,0 -0.014,-0.288 -0.035,-0.288 l 0.398,-0.007 0.302,-0.295 -0.165,-0.083 -0.219,0.213 -0.365,-0.021 -0.219,-0.302 H 9.229 l -0.487,0.364 h 0.446 l 0.041,0.131 -0.116,0.107 0.495,0.014 0.074,0.178 -0.556,-0.02 -0.026,-0.137 -0.35,-0.076 -0.186,-0.103 -0.417,0.003 A 8.22,8.22 0 0 1 13,554.74 c 2.089,0 3.997,0.78 5.452,2.063 l -0.098,0.176 -0.381,0.149 -0.16,0.174 0.037,0.203 0.196,0.027 0.118,0.296 0.34,-0.136 0.055,0.396 h -0.102 l -0.277,-0.041 -0.309,0.053 -0.299,0.422 -0.427,0.067 -0.063,0.365 0.181,0.043 -0.053,0.235 -0.424,-0.086 -0.39,0.086 -0.082,0.217 0.067,0.454 0.228,0.107 0.384,-0.003 0.259,-0.022 0.078,-0.207 0.404,-0.525 0.268,0.054 0.262,-0.237 0.049,0.185 0.644,0.436 -0.077,0.106 -0.291,-0.016 0.111,0.159 0.18,0.039 0.209,-0.088 -0.005,-0.251 0.092,-0.047 -0.074,-0.079 -0.43,-0.24 -0.112,-0.319 h 0.357 l 0.114,0.113 0.309,0.265 0.014,0.321 0.318,0.34 0.119,-0.465 0.221,-0.121 0.042,0.381 0.216,0.237 0.43,-0.008 c 0.084,0.214 0.158,0.433 0.225,0.655 z m -11.969,-2.626 0.216,-0.103 0.196,0.047 -0.068,0.262 -0.211,0.067 z m 1.147,0.618 v 0.17 H 9.563 l -0.185,-0.052 0.045,-0.119 0.238,-0.098 h 0.324 v 0.098 h 0.071 z m 0.228,0.237 v 0.165 l -0.124,0.079 -0.154,0.029 v -0.273 z m -0.139,-0.067 v -0.196 l 0.17,0.155 z m 0.077,0.396 v 0.161 l -0.118,0.118 H 9.841 l 0.041,-0.18 0.125,-0.011 0.025,-0.063 z M 9.567,558.944 H 9.84 l -0.35,0.489 -0.143,-0.078 0.031,-0.206 z m 1.118,0.273 v 0.16 h -0.262 l -0.072,-0.104 v -0.149 h 0.021 z m -0.243,-0.22 0.075,-0.08 0.126,0.08 -0.101,0.083 z m 10.57,2.135 0.026,-0.03 0.031,0.141 z"
     id="path190"
     style="fill:#454545" />
  <path
     d="m 5.399,559.51 v 0.258 c 0.09,-0.21 0.189,-0.415 0.297,-0.616 z"
     id="path192"
     style="fill:#454545" />
  <path
     fill="#ffc400"
     d="m 4,583 h 18 v 12 H 4 Z"
     id="path197" />
  <path
     fill="#c60b1e"
     d="m 4,583 h 18 v 3 H 4 Z m 0,9 h 18 v 3 H 4 Z"
     id="path199" />
  <path
     d="m 22,583 v 12 H 4 v -12 h 18 m 1,-1 H 3 v 14 h 20 z"
     fill="#ffffff"
     id="path201" />
  <path
     fill="#c0c0c0"
     d="m 4,609 h 18 v 12 H 4 Z"
     id="path204" />
  <path
     fill="#454545"
     d="m 4,609 h 18 v 3 H 4 Z m 0,9 h 18 v 3 H 4 Z"
     id="path206" />
  <path
     d="m 22,609 v 12 H 4 v -12 h 18 m 1,-1 H 3 v 14 h 20 z"
     fill="#eeeeee"
     id="path208" />
  <path
     d="m 22,609 v 12 H 4 v -12 h 18 m 1,-1 H 3 v 14 h 20 z"
     fill="#ffffff"
     id="path210" />
  <path
     fill="#ffffff"
     d="m 4,635 h 18 v 12 H 4 Z"
     id="path213" />
  <path
     fill="#006847"
     d="m 4,635 h 6 v 12 H 4 Z"
     id="path215" />
  <path
     fill="#ce1126"
     d="m 16,635 h 6 v 12 h -6 z"
     id="path217" />
  <circle
     cx="13"
     cy="641"
     r="2"
     fill="#c0c2a3"
     id="circle219" />
  <path
     d="m 22,635 v 12 H 4 v -12 h 18 m 1,-1 H 3 v 14 h 20 z"
     fill="#ffffff"
     id="path221" />
  <path
     fill="#ffffff"
     d="m 4,661 h 18 v 12 H 4 Z"
     id="path224" />
  <path
     fill="#454545"
     d="m 4,661 h 6 v 12 H 4 Z"
     id="path226" />
  <path
     fill="#4c4c4c"
     d="m 16,661 h 6 v 12 h -6 z"
     id="path228" />
  <circle
     cx="13"
     cy="667"
     r="2"
     fill="#bebebe"
     id="circle230" />
  <path
     d="m 22,661 v 12 H 4 v -12 h 18 m 1,-1 H 3 v 14 h 20 z"
     fill="#ffffff"
     id="path232" />
  <path
     fill="#ffffff"
     d="m 1,681 h 20 v 14 H 1 Z"
     id="path235" />
  <path
     fill="#ffffff"
     d="m 2,682 h 18 v 12 H 2 Z"
     id="path237" />
  <path
     fill="#b22234"
     d="m 2,682 h 18 v 1 H 2 Z m 0,2 h 18 v 1 H 2 Z m 0,1.8 h 18 v 1 H 2 Z m 0,1.8 h 18 v 1 H 2 Z m 0,1.9 h 18 v 1 H 2 Z m 0,1.8 h 18 v 1 H 2 Z m 0,1.7 h 18 v 1 H 2 Z"
     id="path239" />
  <path
     fill="#3c3b6e"
     d="m 2,682 h 9.2 v 6.5 H 2 Z"
     id="path241" />
  <path
     fill="#ffffff"
     d="m 2.4,682.6 0.3,0.1 -0.1,0.3 0.2,-0.2 0.2,0.2 v -0.3 l 0.1,-0.1 H 3 l -0.1,-0.3 -0.1,0.3 z m 1.6,0 0.2,0.1 -0.2,0.3 0.2,-0.2 0.2,0.2 v -0.3 l 0.2,-0.1 H 4.3 v -0.3 l -0.2,0.3 z m 1.5,0 0.2,0.1 V 683 L 5.8,682.8 6.1,683 6,682.7 6.2,682.6 H 5.9 v -0.3 l -0.1,0.3 z m 1.5,0 0.2,0.1 v 0.3 l 0.2,-0.2 0.2,0.2 -0.1,-0.3 0.2,-0.1 H 7.4 v -0.3 l -0.1,0.3 z m 1.5,0 0.3,0.1 -0.1,0.3 0.2,-0.2 0.2,0.2 v -0.3 l 0.1,-0.1 H 9 l -0.1,-0.3 -0.1,0.3 z m 1.6,0 0.2,0.1 -0.1,0.3 0.2,-0.2 0.2,0.2 v -0.3 l 0.2,-0.1 h -0.3 v -0.3 l -0.2,0.3 z m -6.9,0.6 0.2,0.2 v 0.2 l 0.2,-0.1 0.2,0.1 -0.1,-0.2 0.2,-0.2 H 3.6 V 683 l -0.1,0.2 z m 1.5,0 0.2,0.2 v 0.2 l 0.2,-0.1 0.2,0.1 v -0.2 l 0.1,-0.2 H 5.2 L 5,683 4.9,683.2 Z m 1.5,0 0.3,0.2 -0.1,0.2 0.2,-0.1 0.2,0.1 v -0.2 L 7,683.2 H 6.7 L 6.6,683 v 0.2 z m 1.6,0 0.2,0.2 v 0.2 l 0.1,-0.1 0.2,0.1 v -0.2 l 0.2,-0.2 H 8.2 V 683 L 8,683.2 Z m 1.5,0 0.2,0.2 v 0.2 l 0.2,-0.1 0.2,0.1 -0.1,-0.2 0.2,-0.2 H 9.7 V 683 l -0.1,0.2 z m -6.9,0.6 0.3,0.2 -0.1,0.3 0.2,-0.2 0.2,0.2 V 684 L 2.9,683.7 2.8,684 Z m 1.6,0 0.2,0.2 -0.1,0.3 0.2,-0.2 0.2,0.2 V 684 l 0.2,-0.1 H 4.4 v -0.3 l -0.2,0.3 z m 1.5,0 0.2,0.2 v 0.3 l 0.1,-0.2 0.3,0.2 L 6,684 6.2,683.9 H 5.9 v -0.3 l -0.1,0.3 z m 1.5,0 0.2,0.2 v 0.3 l 0.2,-0.2 0.2,0.2 -0.1,-0.3 0.2,-0.1 H 7.4 v -0.3 l -0.1,0.3 z m 1.5,0 0.3,0.2 -0.1,0.3 0.2,-0.2 0.2,0.2 V 684 l 0.1,-0.1 H 9 l -0.1,-0.3 -0.1,0.3 z m 1.6,0 0.2,0.2 -0.1,0.3 0.2,-0.2 0.2,0.2 V 684 l 0.2,-0.1 h -0.3 v -0.3 l -0.2,0.3 z m -6.9,0.7 0.2,0.2 v 0.2 l 0.2,-0.2 0.2,0.2 -0.1,-0.2 0.2,-0.2 H 3.7 l -0.1,-0.3 -0.1,0.3 z m 1.5,0 0.3,0.2 -0.1,0.2 0.2,-0.2 0.2,0.2 v -0.2 l 0.1,-0.2 H 5.2 L 5,684.2 v 0.3 z m 1.6,0 0.2,0.2 -0.1,0.2 0.2,-0.2 0.2,0.2 v -0.2 L 7,684.5 H 6.7 v -0.3 l -0.2,0.3 z m 1.5,0 0.2,0.2 v 0.2 l 0.1,-0.2 0.3,0.2 -0.1,-0.2 0.2,-0.2 H 8.2 v -0.3 l -0.1,0.3 z m 1.5,0 0.2,0.2 v 0.2 l 0.2,-0.2 0.2,0.2 -0.1,-0.2 0.2,-0.2 H 9.8 l -0.1,-0.3 -0.1,0.3 z m -6.8,0.5 0.2,0.2 -0.1,0.2 0.2,-0.1 0.2,0.1 v -0.2 L 3.2,685 H 2.9 l -0.2,0.2 z m 1.5,0 0.2,0.2 v 0.2 l 0.1,-0.1 0.3,0.1 -0.1,-0.2 0.2,-0.2 H 4.4 l -0.1,0.2 z m 1.5,0 0.2,0.2 v 0.2 l 0.2,-0.1 0.2,0.1 L 6,685.2 6.2,685 H 6 l -0.1,0.2 z m 1.5,0 0.3,0.2 -0.1,0.2 0.2,-0.1 0.2,0.1 v -0.2 L 7.7,685 H 7.4 l -0.1,0.2 z m 1.6,0 0.2,0.2 -0.1,0.2 0.2,-0.1 0.2,0.1 v -0.2 L 9.3,685 H 9 l -0.2,0.2 z m 1.5,0 0.2,0.2 v 0.2 l 0.1,-0.1 0.3,0.1 -0.1,-0.2 0.2,-0.2 h -0.3 l -0.1,0.2 z m -7.6,1.4 0.2,0.2 -0.1,0.2 0.2,-0.1 0.2,0.1 v -0.2 l 0.2,-0.2 H 2.9 v -0.3 l -0.2,0.3 z m 1.5,0 0.2,0.2 v 0.2 l 0.2,-0.1 0.2,0.1 -0.1,-0.2 0.2,-0.2 H 4.4 v -0.3 l -0.1,0.3 z m 1.5,0 0.2,0.2 v 0.2 l 0.2,-0.1 0.2,0.1 v -0.2 l 0.1,-0.2 H 6 l -0.1,-0.3 -0.1,0.3 z m 1.5,0 0.3,0.2 -0.1,0.2 0.2,-0.1 0.2,0.1 v -0.2 l 0.2,-0.2 H 7.5 l -0.1,-0.3 v 0.3 z m 1.6,0 0.2,0.2 v 0.2 l 0.1,-0.1 0.2,0.1 v -0.2 l 0.2,-0.2 H 9 v -0.3 l -0.2,0.3 z m 1.5,0 0.2,0.2 v 0.2 l 0.2,-0.1 0.2,0.1 -0.1,-0.2 0.2,-0.2 h -0.3 v -0.3 l -0.1,0.3 z m -7.6,1.3 0.2,0.1 -0.1,0.3 0.2,-0.2 0.2,0.2 v -0.3 l 0.2,-0.1 H 2.9 v -0.3 l -0.2,0.3 z m 1.5,0 0.2,0.1 v 0.3 l 0.1,-0.2 0.3,0.2 -0.1,-0.3 0.2,-0.1 H 4.4 v -0.3 l -0.2,0.3 z m 1.5,0 0.2,0.1 v 0.3 l 0.2,-0.2 0.2,0.2 -0.1,-0.3 0.2,-0.1 H 6 v -0.3 l -0.1,0.3 z m 1.5,0 0.2,0.1 v 0.3 l 0.2,-0.2 0.2,0.2 v -0.3 l 0.1,-0.1 H 7.5 l -0.1,-0.3 -0.1,0.3 z m 1.6,0 0.2,0.1 -0.1,0.3 0.2,-0.2 0.2,0.2 v -0.3 l 0.2,-0.1 H 9 v -0.3 l -0.2,0.3 z m 1.5,0 0.2,0.1 v 0.3 l 0.1,-0.2 0.3,0.2 -0.1,-0.3 0.2,-0.1 h -0.3 v -0.3 l -0.2,0.3 z m -6.9,-2 0.2,0.2 v 0.3 l 0.2,-0.2 0.2,0.2 v -0.3 l 0.1,-0.1 H 3.7 l -0.1,-0.3 -0.1,0.3 z m 1.5,0 0.3,0.3 -0.1,0.3 0.1,-0.3 0.2,0.2 v -0.3 l 0.2,-0.1 H 5.1 L 5,685.5 v 0.3 z m 1.6,0 0.2,0.2 -0.1,0.3 0.2,-0.2 0.2,0.2 v -0.3 L 7,685.8 H 6.7 v -0.3 l -0.2,0.3 z m 1.5,0 0.2,0.3 v 0.3 -0.3 l 0.3,0.2 -0.1,-0.3 0.2,-0.1 H 8.1 v -0.3 L 8,685.8 Z m 1.5,0 0.2,0.2 v 0.3 l 0.2,-0.2 0.2,0.2 v -0.3 L 10,685.8 H 9.8 l -0.1,-0.3 -0.1,0.3 z m -6,1.3 0.1,0.2 v 0.2 l 0.2,-0.1 0.2,0.2 -0.1,-0.3 0.2,-0.2 H 3.7 L 3.6,686.8 3.5,687 Z m 1.4,0 0.3,0.2 -0.1,0.2 0.2,-0.1 0.2,0.2 v -0.3 L 5.4,687 H 5.2 L 5,686.8 v 0.2 z m 1.6,0 0.2,0.2 -0.1,0.2 0.2,-0.1 0.2,0.2 v -0.3 L 7,687 H 6.7 v -0.2 L 6.5,687 Z m 1.5,0 0.2,0.2 v 0.2 l 0.1,-0.1 0.3,0.2 -0.1,-0.3 0.2,-0.2 H 8.2 v -0.2 L 8,687 Z m 1.5,0 0.2,0.2 v 0.2 l 0.2,-0.1 0.2,0.2 L 9.8,687.2 10,687 H 9.8 L 9.7,686.8 9.6,687 Z"
     id="path243" />
  <path
     fill="#ffffff"
     d="m 1,697 h 20 v 14 H 1 Z"
     id="path248" />
  <path
     fill="#ffffff"
     d="m 2,698 h 18 v 12 H 2 Z"
     id="path250" />
  <path
     fill="#b22234"
     d="m 2,698 h 18 v 1 H 2 Z m 0,2 h 18 v 1 H 2 Z m 0,1.8 h 18 v 1 H 2 Z m 0,1.8 h 18 v 1 H 2 Z m 0,1.9 h 18 v 1 H 2 Z m 0,1.8 h 18 v 1 H 2 Z m 0,1.7 h 18 v 1 H 2 Z"
     id="path252" />
  <path
     fill="#3c3b6e"
     d="m 2,698 h 9.2 v 6.5 H 2 Z"
     id="path254" />
  <path
     fill="#ffffff"
     d="m 2.4,698.6 0.3,0.1 -0.1,0.3 0.2,-0.2 0.2,0.2 v -0.3 l 0.1,-0.1 H 3 l -0.1,-0.3 -0.1,0.3 z m 1.6,0 0.2,0.1 -0.2,0.3 0.2,-0.2 0.2,0.2 v -0.3 l 0.2,-0.1 H 4.3 v -0.3 l -0.2,0.3 z m 1.5,0 0.2,0.1 V 699 L 5.8,698.8 6.1,699 6,698.7 6.2,698.6 H 5.9 v -0.3 l -0.1,0.3 z m 1.5,0 0.2,0.1 v 0.3 l 0.2,-0.2 0.2,0.2 -0.1,-0.3 0.2,-0.1 H 7.4 v -0.3 l -0.1,0.3 z m 1.5,0 0.3,0.1 -0.1,0.3 0.2,-0.2 0.2,0.2 v -0.3 l 0.1,-0.1 H 9 l -0.1,-0.3 -0.1,0.3 z m 1.6,0 0.2,0.1 -0.1,0.3 0.2,-0.2 0.2,0.2 v -0.3 l 0.2,-0.1 h -0.3 v -0.3 l -0.2,0.3 z m -6.9,0.6 0.2,0.2 v 0.2 l 0.2,-0.1 0.2,0.1 -0.1,-0.2 0.2,-0.2 H 3.6 V 699 l -0.1,0.2 z m 1.5,0 0.2,0.2 v 0.2 l 0.2,-0.1 0.2,0.1 v -0.2 l 0.1,-0.2 H 5.2 L 5,699 4.9,699.2 Z m 1.5,0 0.3,0.2 -0.1,0.2 0.2,-0.1 0.2,0.1 v -0.2 L 7,699.2 H 6.7 L 6.6,699 v 0.2 z m 1.6,0 0.2,0.2 v 0.2 l 0.1,-0.1 0.2,0.1 v -0.2 l 0.2,-0.2 H 8.2 V 699 L 8,699.2 Z m 1.5,0 0.2,0.2 v 0.2 l 0.2,-0.1 0.2,0.1 -0.1,-0.2 0.2,-0.2 H 9.7 V 699 l -0.1,0.2 z m -6.9,0.6 0.3,0.2 -0.1,0.3 0.2,-0.2 0.2,0.2 V 700 L 2.9,699.7 2.8,700 Z m 1.6,0 0.2,0.2 -0.1,0.3 0.2,-0.2 0.2,0.2 V 700 l 0.2,-0.1 H 4.4 v -0.3 l -0.2,0.3 z m 1.5,0 0.2,0.2 v 0.3 l 0.1,-0.2 0.3,0.2 L 6,700 6.2,699.9 H 5.9 v -0.3 l -0.1,0.3 z m 1.5,0 0.2,0.2 v 0.3 l 0.2,-0.2 0.2,0.2 -0.1,-0.3 0.2,-0.1 H 7.4 v -0.3 l -0.1,0.3 z m 1.5,0 0.3,0.2 -0.1,0.3 0.2,-0.2 0.2,0.2 V 700 l 0.1,-0.1 H 9 l -0.1,-0.3 -0.1,0.3 z m 1.6,0 0.2,0.2 -0.1,0.3 0.2,-0.2 0.2,0.2 V 700 l 0.2,-0.1 h -0.3 v -0.3 l -0.2,0.3 z m -6.9,0.7 0.2,0.2 v 0.2 l 0.2,-0.2 0.2,0.2 -0.1,-0.2 0.2,-0.2 H 3.7 l -0.1,-0.3 -0.1,0.3 z m 1.5,0 0.3,0.2 -0.1,0.2 0.2,-0.2 0.2,0.2 v -0.2 l 0.1,-0.2 H 5.2 L 5,700.2 v 0.3 z m 1.6,0 0.2,0.2 -0.1,0.2 0.2,-0.2 0.2,0.2 v -0.2 L 7,700.5 H 6.7 v -0.3 l -0.2,0.3 z m 1.5,0 0.2,0.2 v 0.2 l 0.1,-0.2 0.3,0.2 -0.1,-0.2 0.2,-0.2 H 8.2 v -0.3 l -0.1,0.3 z m 1.5,0 0.2,0.2 v 0.2 l 0.2,-0.2 0.2,0.2 -0.1,-0.2 0.2,-0.2 H 9.8 l -0.1,-0.3 -0.1,0.3 z m -6.8,0.5 0.2,0.2 -0.1,0.2 0.2,-0.1 0.2,0.1 v -0.2 L 3.2,701 H 2.9 l -0.2,0.2 z m 1.5,0 0.2,0.2 v 0.2 l 0.1,-0.1 0.3,0.1 -0.1,-0.2 0.2,-0.2 H 4.4 l -0.1,0.2 z m 1.5,0 0.2,0.2 v 0.2 l 0.2,-0.1 0.2,0.1 L 6,701.2 6.2,701 H 6 l -0.1,0.2 z m 1.5,0 0.3,0.2 -0.1,0.2 0.2,-0.1 0.2,0.1 v -0.2 L 7.7,701 H 7.4 l -0.1,0.2 z m 1.6,0 0.2,0.2 -0.1,0.2 0.2,-0.1 0.2,0.1 v -0.2 L 9.3,701 H 9 l -0.2,0.2 z m 1.5,0 0.2,0.2 v 0.2 l 0.1,-0.1 0.3,0.1 -0.1,-0.2 0.2,-0.2 h -0.3 l -0.1,0.2 z m -7.6,1.4 0.2,0.2 -0.1,0.2 0.2,-0.1 0.2,0.1 v -0.2 l 0.2,-0.2 H 2.9 v -0.3 l -0.2,0.3 z m 1.5,0 0.2,0.2 v 0.2 l 0.2,-0.1 0.2,0.1 -0.1,-0.2 0.2,-0.2 H 4.4 v -0.3 l -0.1,0.3 z m 1.5,0 0.2,0.2 v 0.2 l 0.2,-0.1 0.2,0.1 v -0.2 l 0.1,-0.2 H 6 l -0.1,-0.3 -0.1,0.3 z m 1.5,0 0.3,0.2 -0.1,0.2 0.2,-0.1 0.2,0.1 v -0.2 l 0.2,-0.2 H 7.5 l -0.1,-0.3 v 0.3 z m 1.6,0 0.2,0.2 v 0.2 l 0.1,-0.1 0.2,0.1 v -0.2 l 0.2,-0.2 H 9 v -0.3 l -0.2,0.3 z m 1.5,0 0.2,0.2 v 0.2 l 0.2,-0.1 0.2,0.1 -0.1,-0.2 0.2,-0.2 h -0.3 v -0.3 l -0.1,0.3 z m -7.6,1.3 0.2,0.1 -0.1,0.3 0.2,-0.2 0.2,0.2 v -0.3 l 0.2,-0.1 H 2.9 v -0.3 l -0.2,0.3 z m 1.5,0 0.2,0.1 v 0.3 l 0.1,-0.2 0.3,0.2 -0.1,-0.3 0.2,-0.1 H 4.4 v -0.3 l -0.2,0.3 z m 1.5,0 0.2,0.1 v 0.3 l 0.2,-0.2 0.2,0.2 -0.1,-0.3 0.2,-0.1 H 6 v -0.3 l -0.1,0.3 z m 1.5,0 0.2,0.1 v 0.3 l 0.2,-0.2 0.2,0.2 v -0.3 l 0.1,-0.1 H 7.5 l -0.1,-0.3 -0.1,0.3 z m 1.6,0 0.2,0.1 -0.1,0.3 0.2,-0.2 0.2,0.2 v -0.3 l 0.2,-0.1 H 9 v -0.3 l -0.2,0.3 z m 1.5,0 0.2,0.1 v 0.3 l 0.1,-0.2 0.3,0.2 -0.1,-0.3 0.2,-0.1 h -0.3 v -0.3 l -0.2,0.3 z m -6.9,-2 0.2,0.2 v 0.3 l 0.2,-0.2 0.2,0.2 v -0.3 l 0.1,-0.1 H 3.7 l -0.1,-0.3 -0.1,0.3 z m 1.5,0 0.3,0.3 -0.1,0.3 0.1,-0.3 0.2,0.2 v -0.3 l 0.2,-0.1 H 5.1 L 5,701.5 v 0.3 z m 1.6,0 0.2,0.2 -0.1,0.3 0.2,-0.2 0.2,0.2 v -0.3 L 7,701.8 H 6.7 v -0.3 l -0.2,0.3 z m 1.5,0 0.2,0.3 v 0.3 -0.3 l 0.3,0.2 -0.1,-0.3 0.2,-0.1 H 8.1 v -0.3 L 8,701.8 Z m 1.5,0 0.2,0.2 v 0.3 l 0.2,-0.2 0.2,0.2 v -0.3 L 10,701.8 H 9.8 l -0.1,-0.3 -0.1,0.3 z m -6,1.3 0.1,0.2 v 0.2 l 0.2,-0.1 0.2,0.2 -0.1,-0.3 0.2,-0.2 H 3.7 L 3.6,702.8 3.5,703 Z m 1.4,0 0.3,0.2 -0.1,0.2 0.2,-0.1 0.2,0.2 v -0.3 L 5.4,703 H 5.2 L 5,702.8 v 0.2 z m 1.6,0 0.2,0.2 -0.1,0.2 0.2,-0.1 0.2,0.2 v -0.3 L 7,703 H 6.7 v -0.2 L 6.5,703 Z m 1.5,0 0.2,0.2 v 0.2 l 0.1,-0.1 0.3,0.2 -0.1,-0.3 0.2,-0.2 H 8.2 v -0.2 L 8,703 Z m 1.5,0 0.2,0.2 v 0.2 l 0.2,-0.1 0.2,0.2 L 9.8,703.2 10,703 H 9.8 L 9.7,702.8 9.6,703 Z"
     id="path256" />
  <path
     fill="#ffffff"
     d="m 8.923,720.797 -0.355,-0.385 -6.743,-7.328 a 0.25,0.25 0 0 0 -0.353,-0.021 l -0.021,0.021 -0.374,0.405 a 0.307,0.307 0 0 0 0,0.407 L 7.616,721 1.078,728.105 a 0.303,0.303 0 0 0 0,0.404 l 0.373,0.407 c 0.103,0.11 0.27,0.11 0.374,0 l 7.098,-7.714 a 0.306,0.306 0 0 0 0,-0.405"
     id="path263" />
  <path
     fill="url(#a)"
     d="M 15.356,733 H 12.878 L 12.455,735.229 10.226,733 H 7.76 l -0.977,5.143 H 2.939 v 2.601 l 2.823,2.822 -0.229,1.215 H 2 v 2.565 l 2.574,2.573 -0.453,2.415 L 16.792,765 H 35 v -12.356 z"
     id="path271"
     style="fill:url(#linearGradient1470)" />
  <path
     fill="#cc0000"
     d="M 11.258,746.932 H 7.376 L 6.424,752 H 5.201 l 0.952,-5.068 H 3 v -1.15 h 3.363 l 1.026,-5.452 h -3.45 v -1.187 H 7.611 L 8.588,734 h 1.224 l -0.977,5.143 h 3.894 L 13.706,734 h 1.236 l -0.977,5.143 h 2.831 v 1.187 h -3.053 l -1.026,5.452 h 3.152 v 1.15 H 12.494 L 11.542,752 h -1.236 z m -3.672,-1.151 h 3.894 l 1.026,-5.452 H 8.613 Z"
     id="path273" />
  <path
     fill="url(#a)"
     d="M 15.356,769 H 12.878 L 12.455,771.229 10.226,769 H 7.76 l -0.977,5.143 H 2.939 v 2.601 l 2.823,2.822 -0.229,1.215 H 2 v 2.565 l 2.574,2.573 -0.453,2.415 L 16.792,801 H 35 v -12.356 z"
     id="path282"
     style="fill:url(#linearGradient1477)" />
  <path
     fill="#ffffff"
     d="M 11.258,782.932 H 7.376 L 6.424,788 H 5.201 l 0.952,-5.068 H 3 v -1.15 h 3.363 l 1.026,-5.452 h -3.45 v -1.187 H 7.611 L 8.588,770 h 1.224 l -0.977,5.143 h 3.894 L 13.706,770 h 1.236 l -0.977,5.143 h 2.831 v 1.187 h -3.053 l -1.026,5.452 h 3.152 v 1.15 H 12.494 L 11.542,788 h -1.236 z m -3.672,-1.151 h 3.894 l 1.026,-5.452 H 8.613 Z"
     id="path284" />
  <path
     fill="#ffffff"
     d="M 11.258,818.932 H 7.376 L 6.424,824 H 5.201 l 0.952,-5.068 H 3 v -1.15 h 3.363 l 1.026,-5.452 h -3.45 v -1.187 H 7.611 L 8.588,806 h 1.224 l -0.977,5.143 h 3.894 L 13.706,806 h 1.236 l -0.977,5.143 h 2.831 v 1.187 h -3.053 l -1.026,5.452 h 3.152 v 1.15 H 12.494 L 11.542,824 h -1.236 z m -3.672,-1.151 h 3.894 l 1.026,-5.452 H 8.613 Z"
     id="path287" />
  <path
     fill="url(#a)"
     d="m 15.4,805 h -2.5 l -0.4,2.2 -2.301,-2.2 H 7.801 l -1,5.1 H 2.899 v 2.6 l 2.902,2.9 -0.301,1.2 H 2 v 2.499 L 4.6,821.9 4.1,824.301 16.801,837 H 35 v -12.398 z"
     id="path295"
     style="fill:url(#linearGradient1484)" />
  <path
     fill="#d6dbdf"
     d="M 11.301,818.9 H 7.399 l -1,5.1 h -1.2 l 1,-5.1 H 3 v -1.2 h 3.399 l 1,-5.5 h -3.5 v -1.1 h 3.7 L 8.6,806 h 1.201 l -1,5.101 h 3.898 l 1,-5.101 H 14.9 l -1,5.101 h 2.799 v 1.199 h -3.1 l -1,5.501 H 15.8 V 819 h -3.4 l -1,5.102 H 10.3 Z M 7.6,817.8 h 3.9 l 1,-5.501 H 8.6 Z"
     id="path297" />
  <circle
     fill="#f47f25"
     cx="9"
     cy="847"
     r="8"
     id="circle300" />
  <path
     d="m 7.993,845.655 v 4.964 H 7.035 v 1.021 h 4.042 v -1.021 h -1.022 v -5.979 h -3.02 v 1.021 z m 0.062,-2.031 h 2 v -2.016 h -2"
     id="path302"
     style="fill:#ffffff" />
  <path
     opacity="0.2"
     fill="none"
     d="m 1,857 h 32 v 32 H 1 Z"
     id="path307" />
  <path
     fill="none"
     d="m 1,857 h 32 v 32 H 1 Z"
     id="path309" />
  <path
     d="M 17.292,880.707 9.586,873 l 7.706,-7.707 1.415,1.414 -6.293,6.293 6.293,6.293 z"
     id="path311"
     style="fill:#ffffff" />
  <path
     d="m 12,872 h 13 v 2 H 12 Z"
     id="path313"
     style="fill:#ffffff" />
  <path
     fill="none"
     d="m 1,891 h 32 v 32 H 1 Z"
     id="path318" />
  <path
     fill="none"
     d="m 1,891 h 32 v 32 H 1 Z"
     id="path320" />
  <path
     d="M 17.292,914.707 9.586,907 l 7.706,-7.707 1.415,1.414 -6.293,6.293 6.293,6.293 z"
     id="path322" />
  <path
     d="m 12,906 h 13 v 2 H 12 Z"
     id="path324" />
  <path
     fill="#ffffff"
     d="m 16.288,949.177 0.336,0.337 6.38,6.38 c 0.1,0.1 0.256,0.1 0.354,0 l 0.354,-0.353 a 0.25,0.25 0 0 0 0,-0.353 L 17.525,949 l 6.186,-6.188 c 0.1,-0.097 0.1,-0.255 0.002,-0.354 l -0.353,-0.354 a 0.253,0.253 0 0 0 -0.355,0 l -6.717,6.72 a 0.25,0.25 0 0 0 0,0.353 z"
     id="path327" />
  <path
     fill="none"
     d="m 1,925 h 38 v 48 H 1 Z"
     id="path329" />
  <path
     fill="#cc0000"
     d="M 22.582,975.048 H 34.59 v 8.262 h -2.073 v 21.38 H 34.59 V 1013 H 21.722 v -8.31 H 23.8 v -13.374 l -5.979,16.366 -5.826,-16.366 v 13.374 h 2.074 V 1013 H 1.049 v -8.31 H 3.127 V 983.311 H 1 v -8.263 h 12.463 l 4.558,12.823 z m 37.851,29.642 h 1.52 V 1013 H 50.096 v -8.31 h 1.571 v -3.144 h -5.472 l -0.052,3.144 h 1.521 V 1013 H 35.857 v -8.31 h 1.521 L 42.14,975 h 13.529 z m -9.629,-8.158 -1.926,-11.75 -1.823,11.75 z m 35.825,8.11 h 2.076 V 1013 H 77.406 v -15.147 h -2.737 v 6.789 h 1.472 V 1013 H 63.318 v -8.358 h 2.029 v -21.381 h -2.029 v -8.213 h 19.408 l 3.902,4.004 v 11.86 l -3.194,3.191 3.194,3.191 v 7.348 z m -9.223,-21.381 h -2.787 v 8.662 h 2.787 z m 29.489,-8.213 3.952,4.004 v 11.708 h -9.171 v -7.346 l -2.786,-0.056 v 21.332 h 2.786 v -7.396 h 9.171 v 11.653 L 106.895,1013 H 93.77 l -3.85,-4.052 v -29.896 l 3.85,-4.004 z m 31.311,29.642 v 8.31 h -11.803 v -8.31 h 1.517 v -3.144 h -5.469 l -0.053,3.144 h 1.521 v 8.31 h -11.756 v -8.31 h 1.47 L 118.396,975 h 13.528 l 4.763,29.69 z m -11.144,-8.158 -1.927,-11.75 -1.824,11.75 z"
     id="path332" />
  <path
     d="M 22.582,1015.048 H 34.59 v 8.262 h -2.073 v 21.38 H 34.59 V 1053 H 21.722 v -8.31 H 23.8 v -13.374 l -5.979,16.366 -5.826,-16.366 v 13.374 h 2.074 V 1053 H 1.049 v -8.31 h 2.078 v -21.379 H 1 v -8.263 h 12.463 l 4.558,12.823 z m 37.851,29.642 h 1.52 V 1053 H 50.096 v -8.31 h 1.571 v -3.144 h -5.472 l -0.052,3.144 h 1.521 V 1053 H 35.857 v -8.31 h 1.521 L 42.14,1015 h 13.529 z m -9.629,-8.158 -1.926,-11.75 -1.823,11.75 z m 35.825,8.11 h 2.076 V 1053 H 77.406 v -15.147 h -2.737 v 6.789 h 1.472 V 1053 H 63.318 v -8.358 h 2.029 v -21.381 h -2.029 v -8.213 h 19.408 l 3.902,4.004 v 11.86 l -3.194,3.191 3.194,3.191 v 7.348 z m -9.223,-21.381 h -2.787 v 8.662 h 2.787 z m 29.489,-8.213 3.952,4.004 v 11.708 h -9.171 v -7.346 l -2.786,-0.056 v 21.332 h 2.786 v -7.396 h 9.171 v 11.653 L 106.895,1053 H 93.77 l -3.85,-4.052 v -29.896 l 3.85,-4.004 z m 31.311,29.642 v 8.31 h -11.803 v -8.31 h 1.517 v -3.144 h -5.469 l -0.053,3.144 h 1.521 v 8.31 h -11.756 v -8.31 h 1.47 l 4.763,-29.69 h 13.528 l 4.763,29.69 z m -11.144,-8.158 -1.927,-11.75 -1.824,11.75 z"
     id="path335" />
  <path
     d="M 14.035,1088.838 9.52,1076.076 v 10.424 h 1.615 v 6.5 H 1.027 v -6.5 h 1.626 v -16.66 H 1 v -6.465 l 9.644,-0.012 3.544,10.046 3.587,-10.046 9.457,0.012 v 6.465 h -1.618 v 16.66 h 1.618 v 6.5 h -10.11 v -6.5 h 1.625 v -10.424 z m 29.651,-25.473 3.752,23.135 h 1.186 v 6.487 H 39.31 v -6.487 h 1.195 l -0.002,-2.43 h -4.319 l -0.002,2.43 h 1.193 v 6.487 h -9.309 v -6.487 h 1.185 l 3.759,-23.135 z m -3.874,16.785 -1.487,-9.166 -1.453,9.166 z m 39.815,-10.292 v 5.779 h 6.729 v -9.12 l -3.131,-3.152 h -9.847 l -3.133,3.145 v 23.343 l 3.133,3.135 h 9.856 l 3.131,-3.135 0.005,-9.109 h -6.745 l -0.003,5.775 h -2.218 v -16.661 z m -19.09,23.128 v -11.76 l -2.172,-0 -0.003,5.276 h 1.18 v 6.487 H 49.461 v -6.487 h 1.621 v -16.66 h -1.627 v -6.475 H 64.68 l 3.121,3.123 v 9.347 l -2.524,2.498 2.512,2.491 v 5.683 h 1.622 v 6.479 z m -2.198,-23.146 v 6.815 l 2.206,0 v -6.812 z m 44.485,-6.475 3.75,23.135 h 1.188 v 6.487 h -9.314 v -6.487 h 1.194 v -2.43 h -4.317 l -0.005,2.43 h 1.191 v 6.487 h -9.31 v -6.487 h 1.189 l 3.759,-23.135 z m -3.874,16.785 -1.486,-9.166 -1.452,9.166 z m 100.385,-5.151 c -2.059,-2.062 -4.547,-3.069 -7.376,-3.069 -2.825,0 -5.268,1.007 -7.282,3.069 -2.059,2.064 -3.063,4.557 -3.063,7.433 0,2.878 1.005,5.373 3.063,7.387 2.015,2.062 4.457,3.117 7.282,3.117 2.829,0 5.317,-1.055 7.376,-3.117 2.014,-2.014 3.02,-4.509 3.02,-7.387 0,-2.876 -1.006,-5.37 -3.02,-7.433 z m -3.496,11.319 c -1.051,1.103 -2.346,1.629 -3.88,1.629 -1.483,0 -2.778,-0.526 -3.831,-1.629 -1.055,-1.104 -1.629,-2.4 -1.629,-3.887 0,-1.581 0.574,-2.876 1.629,-3.932 1.053,-1.104 2.348,-1.631 3.831,-1.584 1.534,-0.047 2.829,0.48 3.929,1.584 1.006,1.056 1.533,2.351 1.578,3.932 -0.045,1.487 -0.572,2.784 -1.627,3.887 z m -69.451,-19.52 c 2.873,-0.048 5.508,0.862 7.806,2.685 2.252,1.774 3.737,4.077 4.503,6.857 h -5.221 c -0.668,-1.342 -1.629,-2.493 -2.825,-3.309 -1.341,-0.863 -2.729,-1.293 -4.263,-1.293 -2.203,0 -4.074,0.815 -5.605,2.348 -1.578,1.584 -2.346,3.454 -2.297,5.661 -0.049,2.204 0.719,4.074 2.297,5.657 1.531,1.535 3.402,2.35 5.605,2.35 1.533,0 2.922,-0.431 4.263,-1.246 a 8.96,8.96 0 0 0 2.825,-3.31 h 5.221 c -0.766,2.783 -2.251,5.036 -4.503,6.859 -2.298,1.773 -4.933,2.635 -7.806,2.635 -3.592,0 -6.562,-1.245 -9.051,-3.739 -2.539,-2.542 -3.784,-5.659 -3.784,-9.206 0,-3.598 1.245,-6.619 3.784,-9.162 2.489,-2.589 5.459,-3.835 9.051,-3.787 z m 31.612,5.084 c -3.352,-0.049 -5.699,0.864 -7.04,2.638 -0.86,1.103 -1.292,2.543 -1.438,4.363 h 4.984 c 0.094,-0.862 0.383,-1.438 0.719,-1.82 0.526,-0.674 1.387,-1.009 2.631,-0.961 1.057,-0.048 1.872,0.146 2.445,0.48 0.574,0.287 0.814,0.862 0.86,1.678 0,0.67 -0.382,1.2 -1.147,1.534 l -3.832,0.622 c -1.771,0.241 -3.207,0.674 -4.311,1.297 -1.869,1.104 -2.779,2.878 -2.73,5.42 -0.049,1.773 0.527,3.213 1.676,4.27 1.004,0.861 2.396,1.34 4.072,1.389 2.729,-0.049 4.882,-0.719 6.417,-2.061 v 2.061 h 4.98 v -14.677 c 0,-2.396 -0.862,-4.075 -2.491,-4.939 -1.723,-0.911 -3.639,-1.343 -5.795,-1.294 z m 2.108,11.268 0.957,-0.527 v 2.015 c 0,1.728 -0.478,2.927 -1.388,3.598 -0.961,0.671 -1.963,1.006 -3.114,1.006 -0.716,0 -1.292,-0.191 -1.772,-0.575 -0.479,-0.431 -0.719,-1.053 -0.719,-1.966 0,-1.007 0.385,-1.727 1.199,-2.253 0.479,-0.289 1.292,-0.529 2.346,-0.672 z m -13.89,-16.352 v 25.993 h -4.981 v -25.993 z m 31.707,5.802 1.916,-0.526 1.293,-0.095 0.049,5.084 -1.534,-0.098 c -0.957,0 -1.868,0.288 -2.728,0.863 -0.768,0.527 -1.391,1.15 -1.725,1.92 -0.432,0.717 -0.623,1.869 -0.623,3.5 v 9.543 h -4.935 v -19.95 l 4.744,0.048 v 2.541 c 1.005,-1.39 2.205,-2.301 3.543,-2.83 z m 25.289,1.471 -3.16,-3.166 12.022,-12.037 3.163,3.167 z m -9.8,-6.169 h -4.457 V 1055 h 4.457 z m 12.005,12.532 h 13.173 v 4.46 h -13.173 z"
     fill-rule="evenodd"
     clip-rule="evenodd"
     fill="#cc0000"
     id="path338" />
  <path
     d="M 14.035,1128.838 9.52,1116.076 v 10.424 h 1.615 v 6.5 H 1.027 v -6.5 h 1.626 v -16.66 H 1 v -6.465 l 9.644,-0.012 3.544,10.046 3.587,-10.046 9.457,0.012 v 6.465 h -1.618 v 16.66 h 1.618 v 6.5 h -10.11 v -6.5 h 1.625 v -10.424 z m 29.651,-25.473 3.752,23.135 h 1.186 v 6.487 H 39.31 v -6.487 h 1.195 l -0.002,-2.43 h -4.319 l -0.002,2.43 h 1.193 v 6.487 h -9.309 v -6.487 h 1.185 l 3.759,-23.135 z m -3.874,16.785 -1.487,-9.166 -1.453,9.166 z m 39.815,-10.292 v 5.779 h 6.729 v -9.12 l -3.131,-3.152 h -9.847 l -3.133,3.145 v 23.343 l 3.133,3.135 h 9.856 l 3.131,-3.135 0.005,-9.109 h -6.745 l -0.003,5.775 h -2.218 v -16.661 z m -19.09,23.128 v -11.76 l -2.172,-0 -0.003,5.276 h 1.18 v 6.487 H 49.461 v -6.487 h 1.621 v -16.66 h -1.627 v -6.475 H 64.68 l 3.121,3.123 v 9.347 l -2.524,2.498 2.512,2.491 v 5.683 h 1.622 v 6.479 z m -2.198,-23.146 v 6.815 l 2.206,0 v -6.812 z m 44.485,-6.475 3.75,23.135 h 1.188 v 6.487 h -9.314 v -6.487 h 1.194 v -2.43 h -4.317 l -0.005,2.43 h 1.191 v 6.487 h -9.31 v -6.487 h 1.189 l 3.759,-23.135 z m -3.874,16.785 -1.486,-9.166 -1.452,9.166 z m 100.385,-5.151 c -2.059,-2.062 -4.547,-3.069 -7.376,-3.069 -2.825,0 -5.268,1.007 -7.282,3.069 -2.059,2.064 -3.063,4.557 -3.063,7.433 0,2.878 1.005,5.373 3.063,7.387 2.015,2.062 4.457,3.117 7.282,3.117 2.829,0 5.317,-1.055 7.376,-3.117 2.014,-2.014 3.02,-4.509 3.02,-7.387 0,-2.876 -1.006,-5.37 -3.02,-7.433 z m -3.496,11.319 c -1.051,1.103 -2.346,1.629 -3.88,1.629 -1.483,0 -2.778,-0.526 -3.831,-1.629 -1.055,-1.104 -1.629,-2.4 -1.629,-3.887 0,-1.581 0.574,-2.876 1.629,-3.932 1.053,-1.104 2.348,-1.631 3.831,-1.584 1.534,-0.047 2.829,0.48 3.929,1.584 1.006,1.056 1.533,2.351 1.578,3.932 -0.045,1.487 -0.572,2.784 -1.627,3.887 z m -69.451,-19.52 c 2.873,-0.048 5.508,0.862 7.806,2.685 2.252,1.774 3.737,4.077 4.503,6.857 h -5.221 c -0.668,-1.342 -1.629,-2.493 -2.825,-3.309 -1.341,-0.863 -2.729,-1.293 -4.263,-1.293 -2.203,0 -4.074,0.815 -5.605,2.348 -1.578,1.584 -2.346,3.454 -2.297,5.661 -0.049,2.204 0.719,4.074 2.297,5.657 1.531,1.535 3.402,2.35 5.605,2.35 1.533,0 2.922,-0.431 4.263,-1.246 a 8.96,8.96 0 0 0 2.825,-3.31 h 5.221 c -0.766,2.783 -2.251,5.036 -4.503,6.859 -2.298,1.773 -4.933,2.635 -7.806,2.635 -3.592,0 -6.562,-1.245 -9.051,-3.739 -2.539,-2.542 -3.784,-5.659 -3.784,-9.206 0,-3.598 1.245,-6.619 3.784,-9.162 2.489,-2.589 5.459,-3.835 9.051,-3.787 z m 31.612,5.084 c -3.352,-0.049 -5.699,0.864 -7.04,2.638 -0.86,1.103 -1.292,2.543 -1.438,4.363 h 4.984 c 0.094,-0.862 0.383,-1.438 0.719,-1.82 0.526,-0.674 1.387,-1.009 2.631,-0.961 1.057,-0.048 1.872,0.146 2.445,0.48 0.574,0.287 0.814,0.862 0.86,1.678 0,0.67 -0.382,1.2 -1.147,1.534 l -3.832,0.622 c -1.771,0.241 -3.207,0.674 -4.311,1.297 -1.869,1.104 -2.779,2.878 -2.73,5.42 -0.049,1.773 0.527,3.213 1.676,4.27 1.004,0.861 2.396,1.34 4.072,1.389 2.729,-0.049 4.882,-0.719 6.417,-2.061 v 2.061 h 4.98 v -14.677 c 0,-2.396 -0.862,-4.075 -2.491,-4.939 -1.723,-0.911 -3.639,-1.343 -5.795,-1.294 z m 2.108,11.268 0.957,-0.527 v 2.015 c 0,1.728 -0.478,2.927 -1.388,3.598 -0.961,0.671 -1.963,1.006 -3.114,1.006 -0.716,0 -1.292,-0.191 -1.772,-0.575 -0.479,-0.431 -0.719,-1.053 -0.719,-1.966 0,-1.007 0.385,-1.727 1.199,-2.253 0.479,-0.289 1.292,-0.529 2.346,-0.672 z m -13.89,-16.352 v 25.993 h -4.981 v -25.993 z m 31.707,5.802 1.916,-0.526 1.293,-0.095 0.049,5.084 -1.534,-0.098 c -0.957,0 -1.868,0.288 -2.728,0.863 -0.768,0.527 -1.391,1.15 -1.725,1.92 -0.432,0.717 -0.623,1.869 -0.623,3.5 v 9.543 h -4.935 v -19.95 l 4.744,0.048 v 2.541 c 1.005,-1.39 2.205,-2.301 3.543,-2.83 z m 25.289,1.471 -3.16,-3.166 12.022,-12.037 3.163,3.167 z m -9.8,-6.169 h -4.457 V 1095 h 4.457 z m 12.005,12.532 h 13.173 v 4.46 h -13.173 z"
     fill-rule="evenodd"
     clip-rule="evenodd"
     id="path341" />
  <path
     fill="#cc0000"
     d="M 65,1179 H 1 l 7.76,-44 h 64 z"
     id="path344" />
  <path
     d="m 26.79,1164.911 -3.352,-9.474 v 7.739 h 1.2 V 1168 h -7.503 v -4.824 h 1.207 v -12.367 h -1.228 v -4.8 l 7.159,-0.01 2.631,7.457 2.662,-7.457 7.02,0.01 v 4.8 h -1.201 v 12.367 h 1.201 V 1168 h -7.505 v -4.824 h 1.208 v -7.739 z m 21.071,-19.073 c 2.406,-0.041 4.613,0.737 6.537,2.296 1.887,1.517 3.131,3.484 3.771,5.862 h -4.372 c -0.56,-1.147 -1.364,-2.131 -2.366,-2.829 -1.123,-0.737 -2.287,-1.106 -3.57,-1.106 -1.844,0 -3.412,0.697 -4.693,2.009 -1.322,1.353 -1.966,2.952 -1.924,4.838 -0.042,1.885 0.602,3.482 1.924,4.836 1.281,1.312 2.85,2.009 4.693,2.009 1.283,0 2.447,-0.368 3.57,-1.065 a 7.62,7.62 0 0 0 2.366,-2.83 h 4.372 c -0.641,2.379 -1.885,4.307 -3.771,5.864 -1.924,1.517 -4.131,2.253 -6.537,2.253 -3.008,0 -5.496,-1.064 -7.58,-3.197 -2.126,-2.172 -3.168,-4.837 -3.168,-7.869 0,-3.076 1.042,-5.658 3.168,-7.831 2.084,-2.216 4.573,-3.281 7.58,-3.24 z"
     fill-rule="evenodd"
     clip-rule="evenodd"
     fill="#ffffff"
     id="path346" />
  <path
     fill="#cc0000"
     d="M 65,1225 H 1 l 7.76,-44 h 64 z"
     id="path349" />
  <path
     d="m 26.79,1210.911 -3.352,-9.474 v 7.739 h 1.2 V 1214 h -7.503 v -4.824 h 1.207 v -12.367 h -1.228 v -4.8 l 7.159,-0.01 2.631,7.457 2.662,-7.457 7.02,0.01 v 4.8 h -1.201 v 12.367 h 1.201 V 1214 h -7.505 v -4.824 h 1.208 v -7.739 z m 21.071,-19.073 c 2.406,-0.041 4.613,0.737 6.537,2.296 1.887,1.517 3.131,3.484 3.771,5.862 h -4.372 c -0.56,-1.147 -1.364,-2.131 -2.366,-2.829 -1.123,-0.737 -2.287,-1.106 -3.57,-1.106 -1.844,0 -3.412,0.697 -4.693,2.009 -1.322,1.353 -1.966,2.952 -1.924,4.838 -0.042,1.885 0.602,3.482 1.924,4.836 1.281,1.312 2.85,2.009 4.693,2.009 1.283,0 2.447,-0.368 3.57,-1.065 a 7.62,7.62 0 0 0 2.366,-2.83 h 4.372 c -0.641,2.379 -1.885,4.307 -3.771,5.864 -1.924,1.517 -4.131,2.253 -6.537,2.253 -3.008,0 -5.496,-1.064 -7.58,-3.197 -2.126,-2.172 -3.168,-4.837 -3.168,-7.869 0,-3.076 1.042,-5.658 3.168,-7.831 2.084,-2.216 4.573,-3.281 7.58,-3.24 z"
     fill-rule="evenodd"
     clip-rule="evenodd"
     id="path351" />
  <path
     fill="#ffffff"
     d="M 65,1271 H 1 l 7.76,-44 h 64 z"
     id="path354" />
  <path
     d="m 26.791,1256.912 -3.352,-9.476 v 7.739 h 1.199 V 1260 h -7.503 v -4.825 h 1.207 v -12.366 h -1.227 v -4.8 l 7.159,-0.01 2.631,7.457 2.662,-7.457 7.02,0.01 v 4.8 h -1.201 v 12.366 h 1.201 V 1260 h -7.505 v -4.825 h 1.208 v -7.739 z m 21.072,-19.075 c 2.405,-0.041 4.611,0.738 6.537,2.296 1.886,1.516 3.129,3.484 3.77,5.861 h -4.371 c -0.56,-1.147 -1.364,-2.131 -2.366,-2.829 -1.123,-0.737 -2.286,-1.105 -3.569,-1.105 -1.846,0 -3.412,0.697 -4.694,2.008 -1.321,1.353 -1.966,2.951 -1.925,4.838 -0.041,1.884 0.604,3.483 1.925,4.835 1.282,1.313 2.849,2.01 4.694,2.01 1.283,0 2.446,-0.367 3.569,-1.064 a 7.624,7.624 0 0 0 2.366,-2.831 h 4.371 c -0.641,2.38 -1.884,4.306 -3.77,5.864 -1.926,1.518 -4.132,2.252 -6.537,2.252 -3.009,0 -5.497,-1.064 -7.581,-3.195 -2.126,-2.174 -3.168,-4.838 -3.168,-7.87 0,-3.076 1.042,-5.658 3.168,-7.831 2.084,-2.214 4.572,-3.279 7.581,-3.239 z"
     fill-rule="evenodd"
     clip-rule="evenodd"
     fill="#cc0000"
     id="path356" />
  <path
     fill="#ffffff"
     d="M 65,1317 H 1 l 7.76,-44 h 64 z"
     id="path359" />
  <path
     d="m 26.791,1302.912 -3.352,-9.476 v 7.739 h 1.199 V 1306 h -7.503 v -4.825 h 1.207 v -12.366 h -1.227 v -4.8 l 7.159,-0.01 2.631,7.457 2.662,-7.457 7.02,0.01 v 4.8 h -1.201 v 12.366 h 1.201 V 1306 h -7.505 v -4.825 h 1.208 v -7.739 z m 21.072,-19.075 c 2.405,-0.041 4.611,0.738 6.537,2.296 1.886,1.516 3.129,3.484 3.77,5.861 h -4.371 c -0.56,-1.147 -1.364,-2.131 -2.366,-2.829 -1.123,-0.737 -2.286,-1.105 -3.569,-1.105 -1.846,0 -3.412,0.697 -4.694,2.008 -1.321,1.353 -1.966,2.951 -1.925,4.838 -0.041,1.884 0.604,3.483 1.925,4.835 1.282,1.313 2.849,2.01 4.694,2.01 1.283,0 2.446,-0.367 3.569,-1.064 a 7.624,7.624 0 0 0 2.366,-2.831 h 4.371 c -0.641,2.38 -1.884,4.306 -3.77,5.864 -1.926,1.518 -4.132,2.252 -6.537,2.252 -3.009,0 -5.497,-1.064 -7.581,-3.195 -2.126,-2.174 -3.168,-4.838 -3.168,-7.87 0,-3.076 1.042,-5.658 3.168,-7.831 2.084,-2.214 4.572,-3.279 7.581,-3.239 z"
     fill-rule="evenodd"
     clip-rule="evenodd"
     id="path361" />
  <path
     d="m 8.891,1339.482 -2.733,-7.724 v 6.308 H 7.135 V 1342 H 1.017 v -3.934 H 2 v -10.084 H 1 v -3.912 l 5.837,-0.01 2.146,6.082 2.172,-6.082 5.723,0.01 v 3.912 h -0.979 v 10.084 h 0.979 V 1342 H 10.76 v -3.934 h 0.983 v -6.308 z m 17.947,-15.421 2.272,14.006 h 0.717 v 3.928 h -5.638 v -3.928 h 0.724 l -0.002,-1.469 h -2.614 l -0.002,1.469 h 0.724 v 3.928 h -5.635 v -3.928 H 18.1 l 2.275,-14.006 z m -2.345,10.162 -0.899,-5.548 -0.88,5.548 z m 24.1,-6.23 v 3.497 h 4.073 v -5.52 l -1.895,-1.909 h -5.96 l -1.896,1.904 v 14.133 l 1.896,1.896 h 5.966 l 1.895,-1.896 0.004,-5.516 h -4.083 l -0.002,3.496 H 47.25 v -10.085 z m -11.554,13.998 v -7.118 h -1.315 l -10e-4,3.193 h 0.713 v 3.928 h -6.101 v -3.928 h 0.98 v -10.084 h -0.984 v -3.921 h 9.214 l 1.889,1.893 v 5.656 l -1.528,1.513 1.521,1.507 v 3.441 h 0.982 v 3.921 h -5.37 z m -1.331,-14.009 v 4.124 l 1.336,0 v -4.123 z m 26.926,-3.921 2.27,14.006 h 0.719 v 3.928 h -5.638 v -3.928 h 0.723 v -1.469 h -2.614 l -0.002,1.469 h 0.721 v 3.928 h -5.635 v -3.928 h 0.719 l 2.275,-14.006 z m -2.345,10.162 -0.899,-5.548 -0.88,5.548 z m 60.762,-3.118 c -1.244,-1.251 -2.752,-1.859 -4.464,-1.859 -1.71,0 -3.188,0.608 -4.407,1.859 -1.247,1.25 -1.854,2.76 -1.854,4.498 0,1.744 0.607,3.253 1.854,4.472 1.22,1.247 2.697,1.886 4.407,1.886 1.712,0 3.22,-0.639 4.464,-1.886 1.219,-1.219 1.828,-2.728 1.828,-4.472 0,-1.738 -0.609,-3.248 -1.828,-4.498 z m -2.115,6.851 c -0.637,0.666 -1.42,0.988 -2.349,0.988 a 3.095,3.095 0 0 1 -2.319,-0.988 c -0.639,-0.669 -0.986,-1.452 -0.986,-2.353 0,-0.957 0.348,-1.738 0.986,-2.38 0.638,-0.669 1.42,-0.985 2.319,-0.956 0.929,-0.029 1.712,0.287 2.378,0.956 0.607,0.642 0.93,1.423 0.956,2.38 a 3.443,3.443 0 0 1 -0.985,2.353 z M 76.897,1326.14 c 1.74,-0.028 3.334,0.523 4.725,1.626 1.363,1.075 2.262,2.469 2.727,4.151 h -3.16 c -0.405,-0.812 -0.985,-1.51 -1.711,-2.002 -0.811,-0.521 -1.652,-0.785 -2.58,-0.785 -1.334,0 -2.465,0.494 -3.393,1.424 -0.955,0.956 -1.42,2.091 -1.391,3.427 -0.029,1.332 0.436,2.465 1.391,3.422 0.928,0.931 2.059,1.422 3.393,1.422 0.928,0 1.77,-0.26 2.58,-0.754 a 5.394,5.394 0 0 0 1.711,-2.004 h 3.16 c -0.465,1.688 -1.363,3.05 -2.727,4.153 -1.391,1.075 -2.984,1.596 -4.725,1.596 -2.174,0 -3.973,-0.754 -5.479,-2.263 -1.536,-1.539 -2.29,-3.426 -2.29,-5.572 0,-2.179 0.754,-4.007 2.29,-5.546 1.506,-1.568 3.305,-2.324 5.479,-2.295 z m 19.134,3.079 c -2.028,-0.028 -3.448,0.522 -4.261,1.596 -0.521,0.668 -0.782,1.541 -0.87,2.641 h 3.017 c 0.056,-0.521 0.23,-0.871 0.435,-1.1 0.319,-0.412 0.84,-0.613 1.593,-0.584 0.639,-0.029 1.133,0.088 1.48,0.293 0.348,0.174 0.492,0.52 0.521,1.014 0,0.406 -0.231,0.726 -0.694,0.93 l -2.32,0.377 c -1.072,0.145 -1.941,0.405 -2.608,0.784 -1.132,0.667 -1.682,1.741 -1.653,3.282 -0.028,1.073 0.319,1.943 1.015,2.584 0.608,0.521 1.45,0.809 2.464,0.837 1.652,-0.028 2.955,-0.434 3.886,-1.245 v 1.245 h 3.015 v -8.88 c 0,-1.452 -0.523,-2.468 -1.51,-2.99 -1.044,-0.554 -2.205,-0.813 -3.51,-0.784 z m 1.278,6.823 0.577,-0.321 v 1.219 c 0,1.047 -0.29,1.771 -0.839,2.177 -0.582,0.408 -1.188,0.609 -1.885,0.609 -0.435,0 -0.781,-0.116 -1.072,-0.347 -0.291,-0.263 -0.437,-0.64 -0.437,-1.191 0,-0.608 0.233,-1.043 0.728,-1.363 0.289,-0.174 0.781,-0.32 1.418,-0.408 z m -8.408,-9.902 v 15.732 h -3.016 v -15.732 z m 19.193,3.512 1.156,-0.318 0.785,-0.059 0.028,3.08 -0.929,-0.062 c -0.578,0 -1.131,0.177 -1.65,0.524 -0.464,0.316 -0.842,0.695 -1.044,1.162 -0.261,0.432 -0.377,1.13 -0.377,2.114 v 5.777 h -2.987 v -12.071 l 2.871,0.028 v 1.537 c 0.609,-0.84 1.335,-1.391 2.147,-1.712 z m 15.307,0.892 -1.914,-1.919 7.276,-7.284 1.915,1.916 z m -5.934,-3.734 H 114.77 V 1319 h 2.697 z m 7.268,7.585 h 7.973 v 2.7 h -7.973 z"
     fill-rule="evenodd"
     clip-rule="evenodd"
     fill="#cc0000"
     id="path364" />
  <path
     d="m 8.891,1364.482 -2.733,-7.724 v 6.308 H 7.135 V 1367 H 1.017 v -3.934 H 2 v -10.084 H 1 v -3.912 l 5.837,-0.01 2.146,6.082 2.172,-6.082 5.723,0.01 v 3.912 h -0.979 v 10.084 h 0.979 V 1367 H 10.76 v -3.934 h 0.983 v -6.308 z m 17.947,-15.421 2.272,14.006 h 0.717 v 3.928 h -5.638 v -3.928 h 0.724 l -0.002,-1.469 h -2.614 l -0.002,1.469 h 0.724 v 3.928 h -5.635 v -3.928 H 18.1 l 2.275,-14.006 z m -2.345,10.162 -0.899,-5.548 -0.88,5.548 z m 24.1,-6.23 v 3.497 h 4.073 v -5.52 l -1.895,-1.909 h -5.96 l -1.896,1.904 v 14.133 l 1.896,1.896 h 5.966 l 1.895,-1.896 0.004,-5.516 h -4.083 l -0.002,3.496 H 47.25 v -10.085 z m -11.554,13.998 v -7.118 h -1.315 l -10e-4,3.193 h 0.713 v 3.928 h -6.101 v -3.928 h 0.98 v -10.084 h -0.984 v -3.921 h 9.214 l 1.889,1.893 v 5.656 l -1.528,1.513 1.521,1.507 v 3.441 h 0.982 v 3.921 h -5.37 z m -1.331,-14.009 v 4.124 l 1.336,0 v -4.123 z m 26.926,-3.921 2.27,14.006 h 0.719 v 3.928 h -5.638 v -3.928 h 0.723 v -1.469 h -2.614 l -0.002,1.469 h 0.721 v 3.928 h -5.635 v -3.928 h 0.719 l 2.275,-14.006 z m -2.345,10.162 -0.899,-5.548 -0.88,5.548 z m 60.762,-3.118 c -1.244,-1.251 -2.752,-1.859 -4.464,-1.859 -1.71,0 -3.188,0.608 -4.407,1.859 -1.247,1.25 -1.854,2.76 -1.854,4.498 0,1.744 0.607,3.253 1.854,4.472 1.22,1.247 2.697,1.886 4.407,1.886 1.712,0 3.22,-0.639 4.464,-1.886 1.219,-1.219 1.828,-2.728 1.828,-4.472 0,-1.738 -0.609,-3.248 -1.828,-4.498 z m -2.115,6.851 c -0.637,0.666 -1.42,0.988 -2.349,0.988 a 3.095,3.095 0 0 1 -2.319,-0.988 c -0.639,-0.669 -0.986,-1.452 -0.986,-2.353 0,-0.957 0.348,-1.738 0.986,-2.38 0.638,-0.669 1.42,-0.985 2.319,-0.956 0.929,-0.029 1.712,0.287 2.378,0.956 0.607,0.642 0.93,1.423 0.956,2.38 a 3.443,3.443 0 0 1 -0.985,2.353 z M 76.897,1351.14 c 1.74,-0.028 3.334,0.523 4.725,1.626 1.363,1.075 2.262,2.469 2.727,4.151 h -3.16 c -0.405,-0.812 -0.985,-1.51 -1.711,-2.002 -0.811,-0.521 -1.652,-0.785 -2.58,-0.785 -1.334,0 -2.465,0.494 -3.393,1.424 -0.955,0.956 -1.42,2.091 -1.391,3.427 -0.029,1.332 0.436,2.465 1.391,3.422 0.928,0.931 2.059,1.422 3.393,1.422 0.928,0 1.77,-0.26 2.58,-0.754 a 5.394,5.394 0 0 0 1.711,-2.004 h 3.16 c -0.465,1.688 -1.363,3.05 -2.727,4.153 -1.391,1.075 -2.984,1.596 -4.725,1.596 -2.174,0 -3.973,-0.754 -5.479,-2.263 -1.536,-1.539 -2.29,-3.426 -2.29,-5.572 0,-2.179 0.754,-4.007 2.29,-5.546 1.506,-1.568 3.305,-2.324 5.479,-2.295 z m 19.134,3.079 c -2.028,-0.028 -3.448,0.522 -4.261,1.596 -0.521,0.668 -0.782,1.541 -0.87,2.641 h 3.017 c 0.056,-0.521 0.23,-0.871 0.435,-1.1 0.319,-0.412 0.84,-0.613 1.593,-0.584 0.639,-0.029 1.133,0.088 1.48,0.293 0.348,0.174 0.492,0.52 0.521,1.014 0,0.406 -0.231,0.726 -0.694,0.93 l -2.32,0.377 c -1.072,0.145 -1.941,0.405 -2.608,0.784 -1.132,0.667 -1.682,1.741 -1.653,3.282 -0.028,1.073 0.319,1.943 1.015,2.584 0.608,0.521 1.45,0.809 2.464,0.837 1.652,-0.028 2.955,-0.434 3.886,-1.245 v 1.245 h 3.015 v -8.88 c 0,-1.452 -0.523,-2.468 -1.51,-2.99 -1.044,-0.554 -2.205,-0.813 -3.51,-0.784 z m 1.278,6.823 0.577,-0.321 v 1.219 c 0,1.047 -0.29,1.771 -0.839,2.177 -0.582,0.408 -1.188,0.609 -1.885,0.609 -0.435,0 -0.781,-0.116 -1.072,-0.347 -0.291,-0.263 -0.437,-0.64 -0.437,-1.191 0,-0.608 0.233,-1.043 0.728,-1.363 0.289,-0.174 0.781,-0.32 1.418,-0.408 z m -8.408,-9.902 v 15.732 h -3.016 v -15.732 z m 19.193,3.512 1.156,-0.318 0.785,-0.059 0.028,3.08 -0.929,-0.062 c -0.578,0 -1.131,0.177 -1.65,0.524 -0.464,0.316 -0.842,0.695 -1.044,1.162 -0.261,0.432 -0.377,1.13 -0.377,2.114 v 5.777 h -2.987 v -12.071 l 2.871,0.028 v 1.537 c 0.609,-0.84 1.335,-1.391 2.147,-1.712 z m 15.307,0.892 -1.914,-1.919 7.276,-7.284 1.915,1.916 z m -5.934,-3.734 H 114.77 V 1344 h 2.697 z m 7.268,7.585 h 7.973 v 2.7 h -7.973 z"
     fill-rule="evenodd"
     clip-rule="evenodd"
     id="path367" />
  <path
     fill="#cc0000"
     d="m 58.12,1413 h -57 l 7.76,-44 h 57 z"
     id="path370" />
  <path
     d="m 36.767,1378.018 h 8.216 v 5.65 h -1.418 v 14.629 h 1.418 v 5.686 h -8.805 v -5.686 H 37.6 v -9.15 l -4.09,11.196 -3.986,-11.196 v 9.15 h 1.418 v 5.686 h -8.908 v -5.686 h 1.422 v -14.63 H 22 v -5.65 h 8.527 l 3.119,8.771 z"
     fill="#ffffff"
     id="path372" />
  <path
     fill="#cc0000"
     d="m 58.12,1459 h -57 l 7.76,-44 h 57 z"
     id="path375" />
  <path
     d="m 36.767,1424.018 h 8.216 v 5.65 h -1.418 v 14.629 h 1.418 v 5.686 h -8.805 v -5.686 H 37.6 v -9.15 l -4.09,11.196 -3.986,-11.196 v 9.15 h 1.418 v 5.686 h -8.908 v -5.686 h 1.422 v -14.63 H 22 v -5.65 h 8.527 l 3.119,8.771 z"
     id="path377" />
  <path
     fill="#ffffff"
     d="m 58.12,1505 h -57 l 7.76,-44 h 57 z"
     id="path380" />
  <path
     d="m 36.767,1470.018 h 8.216 v 5.65 h -1.418 v 14.629 h 1.418 v 5.686 h -8.805 v -5.686 H 37.6 v -9.15 l -4.09,11.196 -3.986,-11.196 v 9.15 h 1.418 v 5.686 h -8.908 v -5.686 h 1.422 v -14.629 H 22 v -5.65 h 8.527 l 3.119,8.771 z"
     fill="#cc0000"
     id="path382" />
  <path
     fill="#ffffff"
     d="m 58.12,1551 h -57 l 7.76,-44 h 57 z"
     id="path385" />
  <path
     d="m 36.767,1516.018 h 8.216 v 5.65 h -1.418 v 14.629 h 1.418 v 5.686 h -8.805 v -5.686 H 37.6 v -9.15 l -4.09,11.196 -3.986,-11.196 v 9.15 h 1.418 v 5.686 h -8.908 v -5.686 h 1.422 v -14.629 H 22 v -5.65 h 8.527 l 3.119,8.771 z"
     id="path387" />
  <path
     fill="#cc0000"
     d="m 15.766,1553.033 h 8.217 v 5.653 h -1.418 v 14.63 h 1.418 V 1579 h -8.805 v -5.684 H 16.6 v -9.15 l -4.092,11.197 -3.986,-11.198 v 9.15 h 1.42 V 1579 H 1.03 v -5.684 h 1.423 v -14.63 H 1 v -5.653 h 8.527 l 3.12,8.775 3.12,-8.775 z m 25.898,20.283 h 1.04 V 1579 h -8.112 v -5.684 h 1.074 v -2.152 h -3.742 l -0.036,2.152 h 1.04 V 1579 H 24.85 v -5.684 h 1.04 L 29.147,1553 h 9.26 z m -6.588,-5.584 -1.318,-8.04 -1.248,8.04 z m 24.512,5.55 H 61.01 V 1579 h -7.73 v -10.363 h -1.875 v 4.645 h 1.007 V 1579 H 43.64 v -5.72 h 1.387 v -14.625 H 43.64 v -5.621 h 13.28 l 2.67,2.74 v 8.114 l -2.187,2.182 2.186,2.183 v 5.028 z m -6.31,-14.628 h -1.91 v 5.924 h 1.91 z m 20.176,-5.62 2.703,2.74 v 8.01 h -6.273 v -5.028 l -1.906,-0.036 v 14.596 h 1.906 v -5.064 h 6.273 v 7.976 L 73.453,1579 h -8.98 l -2.635,-2.772 v -20.453 l 2.635,-2.742 h 8.98 z m 21.426,20.281 V 1579 H 86.8 v -5.684 h 1.038 v -2.152 h -3.74 l -0.035,2.152 h 1.04 V 1579 H 77.06 v -5.684 h 1.005 L 81.325,1553 h 9.255 l 3.258,20.316 h 1.04 z m -7.626,-5.584 -1.32,-8.04 -1.248,8.04 z"
     id="path390" />
  <path
     fill="#cc0000"
     d="m 15.767,1581.035 h 8.216 v 5.65 h -1.418 v 14.629 h 1.418 V 1607 h -8.805 v -5.686 H 16.6 v -9.149 l -4.09,11.196 -3.987,-11.196 v 9.149 H 9.941 V 1607 H 1.033 v -5.686 h 1.422 v -14.628 H 1 v -5.65 h 8.527 l 3.118,8.771 z m 25.897,20.279 h 1.04 V 1607 h -8.112 v -5.686 h 1.072 v -2.149 h -3.741 l -0.034,2.149 h 1.04 V 1607 H 24.85 v -5.686 h 1.041 L 29.148,1581 h 9.256 z m -6.588,-5.58 -1.318,-8.043 -1.246,8.043 z m 24.512,5.547 H 61.01 V 1607 h -7.732 v -10.365 h -1.873 v 4.646 h 1.008 V 1607 H 43.64 v -5.719 h 1.389 v -14.633 H 43.64 v -5.613 h 13.28 l 2.669,2.739 v 8.112 l -2.185,2.184 2.185,2.183 v 5.028 z m -6.311,-14.633 h -1.906 v 5.93 h 1.906 z m 20.178,-5.613 2.703,2.739 v 8.009 h -6.275 v -5.028 l -1.905,-0.035 v 14.595 h 1.905 v -5.061 h 6.275 v 7.973 L 73.455,1607 h -8.98 l -2.635,-2.773 v -20.453 l 2.635,-2.739 z m 21.424,20.279 V 1607 h -8.076 v -5.686 h 1.037 v -2.149 h -3.741 l -0.036,2.149 h 1.04 V 1607 h -8.042 v -5.686 h 1.004 L 81.324,1581 h 9.256 l 3.259,20.314 z m -7.626,-5.58 -1.318,-8.043 -1.249,8.043 z"
     id="path393" />
  <path
     d="m 15.767,1609.035 h 8.216 v 5.65 h -1.418 v 14.629 h 1.418 V 1635 h -8.805 v -5.686 H 16.6 v -9.149 l -4.09,11.196 -3.987,-11.196 v 9.149 H 9.941 V 1635 H 1.033 v -5.686 h 1.422 v -14.628 H 1 v -5.65 h 8.527 l 3.118,8.771 z m 25.897,20.279 h 1.04 V 1635 h -8.112 v -5.686 h 1.072 v -2.149 h -3.741 l -0.034,2.149 h 1.04 V 1635 H 24.85 v -5.686 h 1.041 L 29.148,1609 h 9.256 z m -6.588,-5.58 -1.318,-8.043 -1.246,8.043 z m 24.512,5.547 H 61.01 V 1635 h -7.732 v -10.365 h -1.873 v 4.646 h 1.008 V 1635 H 43.64 v -5.719 h 1.389 v -14.633 H 43.64 v -5.613 h 13.28 l 2.669,2.739 v 8.112 l -2.185,2.184 2.185,2.183 v 5.028 z m -6.311,-14.633 h -1.906 v 5.93 h 1.906 z m 20.178,-5.613 2.703,2.739 v 8.009 h -6.275 v -5.028 l -1.905,-0.035 v 14.595 h 1.905 v -5.061 h 6.275 v 7.973 L 73.455,1635 h -8.98 l -2.635,-2.773 v -20.453 l 2.635,-2.739 z m 21.424,20.279 V 1635 h -8.076 v -5.686 h 1.037 v -2.149 h -3.741 l -0.036,2.149 h 1.04 V 1635 h -8.042 v -5.686 h 1.004 L 81.324,1609 h 9.256 l 3.259,20.314 z m -7.626,-5.58 -1.318,-8.043 -1.249,8.043 z"
     id="path396" />
  <path
     fill="none"
     d="m 1,1637 h 46 v 41 H 1 Z"
     id="path399" />
  <circle
     fill="#005cb9"
     cx="23.938"
     cy="1657.5"
     r="20"
     id="circle401" />
  <path
     d="m 12.816,1648.269 v 1.889 c -0.072,0.02 -0.185,0.039 -0.34,0.059 -0.154,0.02 -0.306,0.029 -0.458,0.029 -0.15,0 -0.283,-0.012 -0.398,-0.034 a 0.7,0.7 0 0 1 -0.286,-0.123 0.546,0.546 0 0 1 -0.171,-0.246 1.183,1.183 0 0 1 -0.06,-0.413 v -4.635 c 0,-0.138 0.038,-0.244 0.114,-0.32 a 0.798,0.798 0 0 1 0.31,-0.182 c 0.223,-0.079 0.482,-0.136 0.777,-0.172 0.295,-0.037 0.61,-0.055 0.944,-0.055 0.906,0 1.587,0.191 2.046,0.571 0.459,0.38 0.689,0.896 0.689,1.544 0,0.407 -0.105,0.753 -0.315,1.043 -0.21,0.288 -0.459,0.511 -0.748,0.668 0.236,0.322 0.469,0.624 0.699,0.906 0.229,0.282 0.41,0.538 0.541,0.768 a 0.889,0.889 0 0 1 -0.359,0.503 1.032,1.032 0 0 1 -0.585,0.175 c -0.145,0 -0.269,-0.016 -0.374,-0.049 a 0.907,0.907 0 0 1 -0.275,-0.136 1.065,1.065 0 0 1 -0.217,-0.213 2.687,2.687 0 0 1 -0.187,-0.271 l -0.826,-1.309 h -0.521 z m 0.62,-1.309 c 0.25,0 0.446,-0.064 0.591,-0.192 0.144,-0.128 0.216,-0.316 0.216,-0.566 0,-0.249 -0.08,-0.438 -0.241,-0.565 -0.161,-0.128 -0.415,-0.191 -0.762,-0.191 -0.098,0 -0.178,0 -0.236,0.01 a 3.322,3.322 0 0 0 -0.197,0.03 v 1.475 z m 4.69,-2.617 a 2.08,2.08 0 0 1 0.507,-0.187 c 0.227,-0.059 0.454,-0.089 0.685,-0.089 0.328,0 0.618,0.048 0.87,0.143 0.253,0.096 0.415,0.244 0.488,0.448 0.117,0.341 0.246,0.737 0.384,1.191 a 108.307,108.307 0 0 1 0.815,2.828 c 0.132,0.468 0.247,0.884 0.346,1.245 a 0.824,0.824 0 0 1 -0.355,0.222 1.707,1.707 0 0 1 -0.56,0.083 1.67,1.67 0 0 1 -0.399,-0.04 0.713,0.713 0 0 1 -0.265,-0.118 0.577,0.577 0 0 1 -0.168,-0.207 1.877,1.877 0 0 1 -0.113,-0.295 l -0.177,-0.679 h -1.781 c -0.053,0.197 -0.104,0.4 -0.157,0.611 a 57.89,57.89 0 0 1 -0.157,0.609 1.77,1.77 0 0 1 -0.66,0.118 c -0.335,0 -0.583,-0.058 -0.743,-0.172 a 0.554,0.554 0 0 1 -0.241,-0.478 c 0,-0.092 0.013,-0.184 0.04,-0.276 0.026,-0.091 0.056,-0.2 0.088,-0.325 0.046,-0.177 0.11,-0.396 0.192,-0.659 0.082,-0.262 0.172,-0.546 0.27,-0.851 0.099,-0.306 0.204,-0.619 0.315,-0.94 l 0.314,-0.91 a 34.676,34.676 0 0 1 0.462,-1.272 z m 1.182,1.269 c -0.092,0.275 -0.195,0.582 -0.311,0.92 -0.115,0.337 -0.218,0.68 -0.31,1.028 h 1.22 a 65.662,65.662 0 0 0 -0.541,-1.948 z m 5.546,4.614 h -0.382 c -0.145,0 -0.293,-0.01 -0.449,-0.03 a 7.481,7.481 0 0 1 -0.461,-0.074 2.35,2.35 0 0 1 -0.428,-0.123 c -0.362,-0.138 -0.541,-0.378 -0.541,-0.72 v -4.601 c 0,-0.138 0.038,-0.245 0.113,-0.321 a 0.805,0.805 0 0 1 0.311,-0.182 4.13,4.13 0 0 1 0.895,-0.183 c 0.314,-0.029 0.597,-0.044 0.846,-0.044 0.513,0 0.976,0.062 1.392,0.188 0.416,0.124 0.774,0.315 1.074,0.574 0.297,0.259 0.528,0.584 0.692,0.977 0.164,0.394 0.246,0.859 0.246,1.396 0,0.524 -0.079,0.981 -0.236,1.371 -0.157,0.39 -0.383,0.717 -0.674,0.982 a 2.817,2.817 0 0 1 -1.048,0.594 c -0.409,0.13 -0.858,0.196 -1.35,0.196 z m -0.551,-1.427 a 3.67,3.67 0 0 0 0.56,0.049 c 0.223,0 0.427,-0.032 0.615,-0.098 0.187,-0.066 0.348,-0.167 0.481,-0.304 0.134,-0.137 0.239,-0.315 0.315,-0.535 0.074,-0.219 0.113,-0.482 0.113,-0.79 0,-0.588 -0.139,-1.031 -0.414,-1.329 -0.274,-0.297 -0.643,-0.447 -1.102,-0.447 h -0.28 c -0.096,0 -0.192,0.01 -0.29,0.029 v 3.425 z m 6.166,1.358 c -0.072,0.02 -0.186,0.039 -0.339,0.059 -0.153,0.02 -0.307,0.029 -0.458,0.029 -0.152,0 -0.283,-0.012 -0.398,-0.034 a 0.732,0.732 0 0 1 -0.289,-0.123 0.521,0.521 0 0 1 -0.178,-0.246 1.21,1.21 0 0 1 -0.059,-0.413 v -5.194 c 0.072,-0.014 0.188,-0.032 0.344,-0.055 0.158,-0.022 0.309,-0.036 0.452,-0.036 0.151,0 0.284,0.013 0.399,0.036 a 0.696,0.696 0 0 1 0.289,0.123 0.535,0.535 0 0 1 0.178,0.246 c 0.04,0.105 0.059,0.242 0.059,0.413 z m 0.51,-3.07 c 0,-0.512 0.08,-0.965 0.242,-1.357 0.16,-0.395 0.379,-0.723 0.658,-0.99 0.279,-0.265 0.605,-0.466 0.982,-0.604 a 3.514,3.514 0 0 1 1.226,-0.208 c 0.438,0 0.849,0.069 1.226,0.208 0.377,0.138 0.707,0.339 0.989,0.604 0.281,0.267 0.503,0.595 0.664,0.99 0.16,0.393 0.241,0.846 0.241,1.357 0,0.511 -0.08,0.966 -0.236,1.362 a 2.748,2.748 0 0 1 -0.654,0.994 2.799,2.799 0 0 1 -0.988,0.605 c -0.38,0.138 -0.793,0.207 -1.24,0.207 -0.445,0 -0.859,-0.07 -1.24,-0.212 a 2.767,2.767 0 0 1 -0.982,-0.614 c -0.275,-0.269 -0.492,-0.601 -0.649,-0.994 -0.157,-0.393 -0.239,-0.842 -0.239,-1.348 z m 1.77,0 c 0,0.597 0.122,1.043 0.364,1.338 0.242,0.295 0.568,0.442 0.975,0.442 0.413,0 0.741,-0.147 0.984,-0.442 0.242,-0.295 0.363,-0.741 0.363,-1.338 0,-0.591 -0.119,-1.033 -0.358,-1.328 -0.24,-0.295 -0.565,-0.443 -0.979,-0.443 -0.406,0 -0.732,0.146 -0.979,0.438 -0.247,0.292 -0.37,0.737 -0.37,1.333 z M 43.762,1665.15 24,1666.268 4.237,1665.15 a 0.721,0.721 0 0 1 -0.707,-0.56 l -1.837,-12.125 a 0.7,0.7 0 0 1 0.679,-0.854 h 43.253 c 0.445,0 0.775,0.416 0.68,0.854 l -1.836,12.126 a 0.722,0.722 0 0 1 -0.707,0.559 z"
     fill="#ffffff"
     id="path403" />
  <path
     fill="#005cb9"
     d="m 24,1666.593 -0.019,-10e-4 -19.753,-1.117 a 1.04,1.04 0 0 1 -1.015,-0.812 l -0.005,-0.022 -1.834,-12.118 a 1.024,1.024 0 0 1 0.999,-1.237 h 43.253 a 1.026,1.026 0 0 1 1,1.236 l -1.837,12.128 -0.003,0.012 a 1.04,1.04 0 0 1 -1.015,0.812 z M 3.85,1664.53 a 0.4,0.4 0 0 0 0.387,0.295 h 0.019 l 19.744,1.116 19.752,-1.117 h 0.012 a 0.401,0.401 0 0 0 0.387,-0.295 l 1.836,-12.124 0.004,-0.011 a 0.392,0.392 0 0 0 -0.075,-0.32 0.37,0.37 0 0 0 -0.288,-0.139 H 2.373 a 0.372,0.372 0 0 0 -0.288,0.139 0.384,0.384 0 0 0 -0.074,0.32 l 0.004,0.021 z"
     id="path405" />
  <path
     fill="#e2231a"
     d="m 12.919,1653.589 h 2.969 v 2.042 h -0.513 v 5.285 h 0.513 v 2.054 h -3.181 v -2.054 h 0.514 v -3.306 l -1.478,4.045 -1.44,-4.045 v 3.306 h 0.513 v 2.054 H 7.597 v -2.054 H 8.11 v -5.285 H 7.583 v -2.042 h 3.082 l 1.126,3.168 z m 9.356,7.327 h 0.375 v 2.054 h -2.93 v -2.054 h 0.389 v -0.775 h -1.353 l -0.013,0.775 h 0.375 v 2.054 H 16.2 v -2.054 h 0.376 l 1.177,-7.339 h 3.344 z m -2.379,-2.018 -0.476,-2.904 -0.451,2.904 z m 8.854,2.004 h 0.516 v 2.067 h -2.793 v -3.743 h -0.677 v 1.676 h 0.363 v 2.067 H 22.99 v -2.067 h 0.5 v -5.284 h -0.5 v -2.028 h 4.796 l 0.964,0.989 v 2.931 l -0.789,0.789 0.789,0.79 z m -2.279,-5.284 h -0.688 v 2.143 h 0.688 z m 7.289,-2.029 0.979,0.989 v 2.893 h -2.268 v -1.816 l -0.688,-0.013 v 5.272 h 0.688 v -1.828 h 2.268 v 2.88 l -0.979,1.004 h -3.244 l -0.953,-1.001 v -7.39 l 0.953,-0.989 z m 7.74,7.327 v 2.054 h -2.918 v -2.054 h 0.376 v -0.775 h -1.354 l -0.012,0.775 h 0.376 v 2.054 h -2.905 v -2.054 h 0.363 l 1.178,-7.339 h 3.344 l 1.177,7.339 z m -2.755,-2.018 -0.476,-2.904 -0.451,2.904 z"
     id="path407" />
  <path
     fill="#ffffff"
     d="m 22.172,1668.126 0.129,-0.646 a 0.254,0.254 0 0 1 0.294,-0.194 c 1.115,0.188 1.693,0.188 2.807,0 a 0.255,0.255 0 0 1 0.295,0.194 l 0.129,0.646 c 0.025,0.133 -0.078,0.267 -0.232,0.292 -1.267,0.214 -1.923,0.214 -3.19,0 -0.154,-0.025 -0.258,-0.159 -0.232,-0.292 z m -1.276,1.661 0.187,-0.63 c 0.039,-0.13 0.199,-0.196 0.357,-0.154 1.673,0.442 3.447,0.442 5.121,0 0.157,-0.042 0.317,0.024 0.355,0.154 0.076,0.251 0.113,0.378 0.188,0.63 0.039,0.129 -0.072,0.279 -0.25,0.326 a 11.222,11.222 0 0 1 -5.708,0 c -0.177,-0.049 -0.289,-0.197 -0.25,-0.326 z"
     id="path409" />
  <path
     fill="#ffffff"
     d="m 19.236,1671.27 0.252,-0.606 c 0.051,-0.125 0.238,-0.166 0.417,-0.099 2.568,1.033 5.619,0.973 8.188,0 0.179,-0.067 0.365,-0.026 0.417,0.099 l 0.252,0.606 c 0.051,0.125 -0.066,0.293 -0.263,0.369 -3.188,0.969 -5.827,0.963 -9.001,0 -0.196,-0.077 -0.313,-0.244 -0.262,-0.369 z m 2.872,2.664 0.088,-0.651 c 0.019,-0.134 0.208,-0.22 0.422,-0.196 1.102,0.116 1.661,0.116 2.762,0 0.214,-0.023 0.404,0.062 0.422,0.196 l 0.089,0.651 c 0.019,0.133 -0.158,0.269 -0.392,0.293 -1.197,0.125 -1.805,0.125 -3.003,0 -0.231,-0.025 -0.406,-0.161 -0.388,-0.293 z m -1.892,1.748 0.158,-0.64 c 0.033,-0.13 0.251,-0.188 0.488,-0.137 2.198,0.348 4.076,0.348 6.275,0 0.235,-0.052 0.454,0.01 0.487,0.137 l 0.159,0.64 c 0.033,0.129 -0.146,0.289 -0.402,0.346 -2.208,0.514 -4.553,0.451 -6.762,0 -0.255,-0.058 -0.435,-0.217 -0.403,-0.346 z"
     id="path411" />
  <path
     d="M 22.402,1680.289 17.826,1693.1 13.298,1680.289 1,1680.311 v 8.231 h 2.104 v 21.242 H 1.03 v 8.273 h 12.899 v -8.273 h -2.063 v -13.29 l 5.759,16.267 6.02,-16.267 v 13.29 h -2.074 v 8.273 H 34.47 v -8.273 h -2.073 v -21.242 h 2.073 v -8.231 z m 26.219,9.716 1.904,11.678 H 46.77 Z m -6.78,-9.716 -4.797,29.484 h -1.513 v 8.264 H 47.41 v -8.264 h -1.522 l 0.01,-3.093 h 5.508 v 3.093 h -1.532 v 8.264 h 11.889 v -8.264 H 60.25 l -4.797,-29.484 z m 52.501,0.012 -3.998,4.005 v 29.746 l 3.998,3.995 h 12.579 l 3.994,-3.995 v -11.608 h -8.602 v 7.362 h -2.834 v -21.235 h 2.834 v 7.363 h 8.583 v -11.619 l -3.996,-4.014 z m 30.723,9.704 1.906,11.678 h -3.757 z m -6.779,-9.716 -4.797,29.484 h -1.512 v 8.264 h 11.878 v -8.264 h -1.522 l 0.009,-3.093 h 5.51 v 3.093 h -1.523 v 8.264 h 11.878 v -8.264 h -1.512 l -4.787,-29.484 z"
     id="path414"
     style="fill:#cc0000" />
  <path
     fill="#ffffff"
     d="M 81.43,1680 H 68.211 c -7.571,2.714 -12.999,9.935 -12.999,18.446 0,10.826 8.772,19.61 19.608,19.61 10.836,0 19.61,-8.784 19.61,-19.61 10e-4,-8.511 -5.427,-15.732 -13,-18.446 z"
     id="path416" />
  <path
     d="m 86.18,1698.446 c 0,-6.269 -5.089,-11.356 -11.359,-11.356 -6.27,0 -11.355,5.088 -11.355,11.356 0,6.271 5.086,11.359 11.355,11.359 6.27,10e-4 11.359,-5.088 11.359,-11.359 z m -13.752,7 h -2.625 v -5.766 h -3.664 v -2.635 l 3.685,-0.01 v -5.89 h 7.951 c 2.436,0 4.499,1.691 4.499,4.126 0,2.433 -1.825,4.417 -4.547,4.417 l 3.345,5.798 h -2.786 l -3.354,-5.808 h -2.503 v 5.767 z"
     id="path418"
     style="fill:#0b1742" />
  <path
     d="m 79.479,1695.302 c 0,-0.95 -0.691,-1.601 -1.642,-1.601 l -5.43,0.01 v 3.326 c 0.021,-0.022 5.42,0 5.42,0 0.96,0 1.652,-0.771 1.652,-1.735 z"
     id="path420"
     style="fill:#0b1742" />
  <path
     d="m 92.178,1698.446 c 0,-9.584 -7.772,-17.354 -17.357,-17.354 -9.584,0 -17.355,7.771 -17.355,17.354 0,8.294 5.818,15.225 13.592,16.947 v -3.186 c -6.051,-1.653 -10.507,-7.19 -10.507,-13.762 0,-7.88 6.39,-14.271 14.271,-14.271 7.882,0 14.271,6.391 14.271,14.271 0,6.581 -4.445,12.108 -10.505,13.762 v 3.186 c 7.77,-1.722 13.59,-8.653 13.59,-16.947 z"
     id="path424"
     style="fill:#cc0000" />
  <path
     d="m 74.571,1712.709 c -0.01,-0.01 -0.01,-0.021 -0.021,-0.03 a 0.462,0.462 0 0 0 -0.279,-0.19 0.858,0.858 0 0 0 -0.551,0.04 v -0.802 h 0.73 c 0.052,0 0.07,-0.02 0.07,-0.069 v -0.451 c 0,-0.049 -0.019,-0.07 -0.07,-0.07 h -1.272 c -0.05,0 -0.069,0.021 -0.069,0.07 v 1.932 c 0,0.041 0.02,0.061 0.059,0.069 l 0.502,0.131 c 0.02,0.012 0.03,0.012 0.04,-0.01 0.01,-0.01 0.021,-0.021 0.021,-0.039 v -0.14 c 0,-0.051 0.009,-0.091 0.028,-0.111 0.011,-0.01 0.021,-0.021 0.03,-0.031 0.021,-0.01 0.04,-0.019 0.06,-0.019 h 0.041 c 0.021,0 0.05,0.01 0.06,0.019 0.021,0.01 0.03,0.022 0.03,0.031 0.021,0.021 0.031,0.061 0.031,0.121 v 1.051 c 0,0.041 -0.01,0.069 -0.041,0.091 a 0.127,0.127 0 0 1 -0.09,0.04 h -0.041 c -0.038,0 -0.069,-0.01 -0.09,-0.04 a 0.133,0.133 0 0 1 -0.039,-0.091 v -0.359 c 0,-0.052 -0.021,-0.071 -0.071,-0.052 l -0.48,0.132 c -0.029,-0.011 -0.049,0.02 -0.049,0.068 v 0.221 c 0,0.091 0.02,0.181 0.049,0.26 0.04,0.082 0.081,0.152 0.141,0.21 0.06,0.063 0.131,0.111 0.211,0.143 a 0.6,0.6 0 0 0 0.26,0.048 h 0.2 c 0.089,0 0.18,-0.02 0.26,-0.048 a 0.697,0.697 0 0 0 0.353,-0.353 0.597,0.597 0 0 0 0.048,-0.26 v -1.213 a 0.449,0.449 0 0 0 -0.061,-0.299 z m 1.933,-1.202 a 0.743,0.743 0 0 0 -0.14,-0.209 0.6,0.6 0 0 0 -0.209,-0.141 0.577,0.577 0 0 0 -0.263,-0.05 h -0.2 a 0.734,0.734 0 0 0 -0.261,0.05 0.759,0.759 0 0 0 -0.21,0.141 0.576,0.576 0 0 0 -0.139,0.209 0.56,0.56 0 0 0 -0.052,0.261 v 2.453 a 0.675,0.675 0 0 0 0.191,0.47 0.608,0.608 0 0 0 0.21,0.143 c 0.08,0.038 0.171,0.048 0.261,0.048 h 0.2 c 0.091,0 0.181,-0.02 0.263,-0.048 a 0.783,0.783 0 0 0 0.209,-0.143 0.562,0.562 0 0 0 0.14,-0.21 0.584,0.584 0 0 0 0.051,-0.26 v -2.453 a 0.735,0.735 0 0 0 -0.051,-0.261 z m -0.57,2.683 c 0,0.042 -0.011,0.071 -0.041,0.09 a 0.125,0.125 0 0 1 -0.09,0.041 h -0.04 c -0.042,0 -0.07,-0.01 -0.09,-0.041 a 0.119,0.119 0 0 1 -0.042,-0.09 v -2.403 c 0,-0.039 0.012,-0.07 0.042,-0.09 a 0.127,0.127 0 0 1 0.09,-0.04 h 0.04 c 0.039,0 0.07,0.01 0.09,0.04 0.02,0.02 0.041,0.061 0.041,0.09 z m -2.615,1.543 -0.03,-0.25 c 0,-0.031 -0.021,-0.041 -0.041,-0.041 h -0.371 c -0.028,0 -0.038,0.01 -0.038,0.041 l -0.02,0.189 -0.19,1.683 c 0,0.031 0.01,0.041 0.029,0.041 h 0.25 c 0.021,0 0.04,-0.01 0.04,-0.041 l 0.02,-0.299 h 0.171 l 0.02,0.299 c 0,0.031 0.021,0.041 0.04,0.041 h 0.25 c 0.031,0 0.041,-0.01 0.031,-0.041 z m -0.321,1.01 0.051,-0.749 h 0.019 l 0.052,0.749 z m 2.885,-0.98 a 0.276,0.276 0 0 0 -0.03,-0.12 c -0.02,-0.038 -0.04,-0.08 -0.079,-0.109 a 0.551,0.551 0 0 0 -0.109,-0.081 0.335,0.335 0 0 0 -0.143,-0.028 h -0.109 a 0.352,0.352 0 0 0 -0.139,0.028 0.278,0.278 0 0 0 -0.111,0.081 0.385,0.385 0 0 0 -0.079,0.109 0.315,0.315 0 0 0 -0.031,0.142 v 1.281 c 0,0.05 0.01,0.09 0.031,0.141 0.019,0.038 0.038,0.08 0.079,0.109 a 0.403,0.403 0 0 0 0.111,0.081 c 0.038,0.02 0.088,0.028 0.139,0.028 h 0.109 a 0.387,0.387 0 0 0 0.143,-0.028 c 0.038,-0.02 0.079,-0.041 0.109,-0.081 a 0.454,0.454 0 0 0 0.079,-0.109 0.313,0.313 0 0 0 0.03,-0.141 z m -0.321,1.294 c 0,0.019 -0.009,0.029 -0.019,0.049 a 0.086,0.086 0 0 1 -0.051,0.02 h -0.019 c -0.022,0 -0.031,-0.01 -0.052,-0.02 a 0.076,0.076 0 0 1 -0.02,-0.049 v -1.273 c 0,-0.021 0.01,-0.031 0.02,-0.041 0.01,-0.01 0.029,-0.019 0.052,-0.019 h 0.019 c 0.02,0 0.029,0.01 0.051,0.019 0.01,0.01 0.01,0.02 0.019,0.029 z m 1.162,-1.052 0.251,-0.071 c 0.019,-0.01 0.04,-0.019 0.04,-0.05 v -0.111 c 0,-0.039 -0.012,-0.079 -0.021,-0.119 0,-0.011 0,-0.011 -0.01,-0.021 -0.019,-0.039 -0.038,-0.08 -0.08,-0.108 a 0.326,0.326 0 0 0 -0.249,-0.11 h -0.111 a 0.406,0.406 0 0 0 -0.141,0.028 c -0.038,0.02 -0.078,0.041 -0.109,0.082 a 0.5,0.5 0 0 0 -0.081,0.108 c -0.009,0.03 -0.019,0.061 -0.019,0.101 v 0.372 c 0,0.038 0.01,0.079 0.019,0.099 0.01,0.03 0.031,0.05 0.062,0.079 l 0.36,0.282 c 0.021,0.01 0.03,0.029 0.03,0.05 0.01,0.02 0.01,0.038 0.01,0.061 v 0.381 c 0,0.019 -0.01,0.029 -0.02,0.049 -0.01,0.01 -0.03,0.02 -0.052,0.02 h -0.019 c -0.02,0 -0.029,-0.01 -0.051,-0.02 a 0.077,0.077 0 0 1 -0.021,-0.049 v -0.342 c 0,-0.028 -0.009,-0.039 -0.039,-0.028 l -0.252,0.068 c -0.019,0.011 -0.038,0.02 -0.038,0.051 v 0.27 c 0,0.05 0.01,0.09 0.028,0.141 0.022,0.041 0.042,0.08 0.081,0.11 a 0.502,0.502 0 0 0 0.109,0.08 0.345,0.345 0 0 0 0.141,0.028 h 0.111 c 0.049,0 0.091,-0.01 0.139,-0.028 a 0.272,0.272 0 0 0 0.11,-0.08 0.384,0.384 0 0 0 0.08,-0.11 0.318,0.318 0 0 0 0.031,-0.141 v -0.48 c 0,-0.029 -0.012,-0.061 -0.021,-0.09 -0.01,-0.031 -0.028,-0.051 -0.06,-0.08 l -0.359,-0.271 c -0.01,-0.01 -0.031,-0.029 -0.031,-0.039 -0.01,-0.01 -0.01,-0.03 -0.01,-0.051 v -0.249 c 0,-0.021 0.01,-0.03 0.021,-0.052 0.01,-0.01 0.029,-0.02 0.048,-0.02 h 0.021 c 0.021,0 0.03,0.01 0.05,0.02 0.011,0.01 0.021,0.031 0.021,0.052 v 0.18 c 0.001,0.01 0.01,0.017 0.031,0.01 z m -2.041,-0.553 H 74.43 c -0.028,0 -0.038,0.01 -0.038,0.041 v 0.902 l -0.19,-0.59 -0.101,-0.3 c 0,-0.012 -0.01,-0.021 -0.021,-0.032 -0.01,-0.011 -0.021,-0.011 -0.031,-0.011 H 73.87 c -0.031,0 -0.041,0.011 -0.041,0.043 v 1.872 c 0,0.029 0.01,0.039 0.041,0.039 h 0.241 c 0.028,0 0.038,-0.01 0.038,-0.039 v -0.923 l 0.301,0.923 c 0,0.01 0.011,0.02 0.021,0.029 0.01,0.01 0.021,0.01 0.031,0.01 h 0.181 c 0.028,0 0.038,-0.01 0.038,-0.039 v -1.873 c -0.01,-0.042 -0.019,-0.052 -0.038,-0.052 z m -0.582,-0.17 c 0,-0.021 0.011,-0.03 0.029,-0.03 a 0.1,0.1 0 0 1 0.071,0.02 l 0.079,0.043 c 0.04,0.028 0.06,0.028 0.13,0.028 h 0.04 c 0.09,0 0.142,-0.04 0.142,-0.15 v -0.141 H 74.41 v 0.062 c 0,0.021 -0.009,0.03 -0.029,0.03 -0.031,0 -0.041,0 -0.069,-0.02 l -0.082,-0.043 c -0.049,-0.02 -0.07,-0.029 -0.129,-0.029 h -0.042 c -0.089,0 -0.138,0.041 -0.138,0.151 v 0.14 h 0.19 v -0.061 z"
     id="path426"
     style="fill:#cc0000" />
  <path
     fill="#1f2b38"
     d="M 24,1729 H 10 c -0.963,0 -1.75,0.788 -1.75,1.75 v 10.5 c 0,0.963 0.787,1.75 1.75,1.75 h 14 c 0.963,0 1.75,-0.787 1.75,-1.75 v -10.5 c 0,-0.962 -0.787,-1.75 -1.75,-1.75 z m -0.256,10.757 -1.238,1.236 -3.756,-3.755 -1.75,1.75 -1.75,-1.75 -3.756,3.755 -0.31,-0.309 -0.619,-0.619 -0.309,-0.309 3.757,-3.756 -3.756,-3.757 0.309,-0.309 0.619,-0.619 0.31,-0.309 5.505,5.507 5.506,-5.506 0.31,0.309 0.618,0.619 0.311,0.309 -3.758,3.756 z"
     id="path429" />
  <path
     fill="#ffffff"
     d="M 24,1763 H 10 c -0.963,0 -1.75,0.788 -1.75,1.75 v 10.5 c 0,0.963 0.787,1.75 1.75,1.75 h 14 c 0.963,0 1.75,-0.787 1.75,-1.75 v -10.5 c 0,-0.962 -0.787,-1.75 -1.75,-1.75 z m -0.256,10.757 -1.238,1.236 -3.756,-3.755 -1.75,1.75 -1.75,-1.75 -3.756,3.755 -0.31,-0.309 -0.619,-0.619 -0.309,-0.309 3.757,-3.756 -3.756,-3.757 0.309,-0.309 0.619,-0.619 0.31,-0.309 5.505,5.507 5.506,-5.506 0.31,0.309 0.618,0.619 0.311,0.309 -3.758,3.756 z"
     id="path432" />
  <path
     fill="none"
     d="m 1,1788 h 52 v 44 H 1 Z"
     id="path435" />
  <path
     d="m 17,1803 h 20 v 2 H 17 Z m 0,-5 h 20 v 2 H 17 Z m 0,10 h 20 v 2 H 17 Z"
     fill="#ffffff"
     id="path437" />
  <path
     fill="#221f1f"
     d="m 10.214,1840.778 h 3.173 v 2.294 h -3.173 v 3.586 H 7.796 v -3.586 H 4.614 v -2.294 h 3.182 v -3.436 h 2.418 z"
     id="path440" />
  <path
     fill="#ffffff"
     d="m 10.214,1858.778 h 3.172 v 2.294 h -3.172 v 3.586 H 7.796 v -3.586 H 4.614 v -2.294 h 3.182 v -3.436 h 2.418 z"
     id="path443" />
  <path
     fill="#c00c00"
     d="m 27.292,1884.657 a 0.733,0.733 0 1 0 -1.466,0 v 6.502 c 0,0.4 -0.339,0.795 -0.734,0.795 H 8.914 c -0.397,0 -0.739,-0.395 -0.739,-0.795 v -10.291 c 0,-0.399 0.341,-0.679 0.739,-0.679 h 16.175 c 0.158,0 0.237,0.027 0.126,0.138 l -7.174,7.179 c -0.554,0.552 -1.527,0.533 -2.081,-0.02 l -1.39,-1.415 h -0.004 l -3.55,-3.522 a 0.732,0.732 0 0 0 -1.034,0.01 l -0.005,0 a 0.74,0.74 0 0 0 0,1.046 l 2.51,2.52 -2.51,2.507 a 0.736,0.736 0 1 0 1.039,1.042 l 2.514,-2.51 c 0.015,0.014 0.041,0.021 0.058,0.04 l 1.337,1.33 a 2.895,2.895 0 0 0 2.074,0.856 c 0.786,0 1.526,-0.288 2.079,-0.841 l 1.396,-1.384 2.511,2.509 a 0.734,0.734 0 0 0 1.037,0 l 0.002,-0 a 0.739,0.739 0 0 0 0,-1.038 l -2.506,-2.503 4.736,-4.715 c 0.862,-0.863 0.754,-1.532 0.616,-1.873 -0.146,-0.341 -0.563,-0.828 -1.78,-0.828 H 8.914 c -1.216,0 -2.206,0.932 -2.206,2.147 v 10.292 c 0,1.214 0.99,2.266 2.206,2.266 h 16.175 c 1.21,0 2.203,-1.052 2.203,-2.266 z"
     id="path446" />
  <path
     fill="#ffffff"
     d="m 27.292,1918.657 a 0.733,0.733 0 1 0 -1.466,0 v 6.502 c 0,0.4 -0.339,0.795 -0.734,0.795 H 8.914 c -0.397,0 -0.739,-0.395 -0.739,-0.795 v -10.291 c 0,-0.399 0.341,-0.679 0.739,-0.679 h 16.175 c 0.158,0 0.237,0.027 0.126,0.138 l -7.174,7.179 c -0.554,0.552 -1.527,0.533 -2.081,-0.02 l -1.39,-1.415 h -0.004 l -3.55,-3.522 a 0.732,0.732 0 0 0 -1.034,0.01 l -0.005,0 a 0.74,0.74 0 0 0 0,1.046 l 2.51,2.52 -2.51,2.507 a 0.736,0.736 0 1 0 1.039,1.042 l 2.514,-2.51 c 0.015,0.014 0.041,0.021 0.058,0.04 l 1.337,1.33 a 2.895,2.895 0 0 0 2.074,0.856 c 0.786,0 1.526,-0.288 2.079,-0.841 l 1.396,-1.384 2.511,2.509 a 0.734,0.734 0 0 0 1.037,0 l 0.002,-0 a 0.739,0.739 0 0 0 0,-1.038 l -2.506,-2.503 4.736,-4.715 c 0.862,-0.863 0.754,-1.532 0.616,-1.873 -0.146,-0.341 -0.563,-0.828 -1.78,-0.828 H 8.914 c -1.216,0 -2.206,0.932 -2.206,2.147 v 10.292 c 0,1.214 0.99,2.266 2.206,2.266 h 16.175 c 1.21,0 2.203,-1.052 2.203,-2.266 z"
     id="path449" />
  <path
     fill="#000c00"
     d="m 27.292,1952.657 a 0.733,0.733 0 1 0 -1.465,0 v 6.502 c 0,0.399 -0.339,0.795 -0.733,0.795 H 8.914 c -0.397,0 -0.739,-0.396 -0.739,-0.795 v -10.291 c 0,-0.399 0.341,-0.679 0.739,-0.679 h 16.175 c 0.158,0 0.237,0.027 0.126,0.138 l -7.174,7.179 c -0.554,0.553 -1.526,0.533 -2.081,-0.02 l -1.39,-1.416 h -0.004 l -3.55,-3.522 a 0.732,0.732 0 0 0 -1.034,0.01 l -0.005,0 a 0.74,0.74 0 0 0 0,1.046 l 2.51,2.52 -2.51,2.507 a 0.73609952,0.73609952 0 0 0 1.039,1.043 l 2.514,-2.511 c 0.015,0.015 0.041,0.021 0.058,0.04 l 1.337,1.33 a 2.89,2.89 0 0 0 2.074,0.855 c 0.786,0 1.525,-0.287 2.079,-0.84 l 1.396,-1.385 2.512,2.51 a 0.736,0.736 0 0 0 1.037,0 l 0.002,-0 a 0.742,0.742 0 0 0 0,-1.039 l -2.506,-2.502 4.735,-4.715 c 0.862,-0.863 0.754,-1.532 0.616,-1.873 -0.146,-0.341 -0.563,-0.828 -1.78,-0.828 H 8.914 c -1.216,0 -2.206,0.932 -2.206,2.146 v 10.292 c 0,1.215 0.99,2.267 2.206,2.267 h 16.175 c 1.21,0 2.203,-1.052 2.203,-2.267 z"
     id="path452" />
  <path
     fill="#cc0000"
     d="m 10.22,1987.97 3.969,-3.97 -3.969,-3.97 1.06,-1.06 5.031,5.03 -5.031,5.029 z"
     id="path455" />
  <path
     fill="#ffffff"
     d="m 10.22,2013.97 3.969,-3.97 -3.969,-3.97 1.06,-1.06 5.031,5.03 -5.031,5.03 z"
     id="path458" />
  <path
     fill="#221f1f"
     d="m 10.22,2039.97 3.969,-3.97 -3.969,-3.97 1.06,-1.061 5.031,5.031 -5.031,5.029 z"
     id="path461" />
  <path
     d="m 11.914,2058.639 a 0.45,0.45 0 0 1 -0.636,0 l -5.513,-5.513 a 0.45,0.45 0 0 1 0,-0.636 l 0.32,-0.32 a 0.452,0.452 0 0 1 0.637,0 l 5.512,5.512 a 0.449,0.449 0 0 1 0,0.636 z"
     id="path464" />
  <path
     d="m 5.766,2063.51 a 0.45,0.45 0 0 1 0,-0.636 l 5.512,-5.513 a 0.452,0.452 0 0 1 0.637,0 l 0.32,0.32 a 0.449,0.449 0 0 1 0,0.636 l -5.512,5.512 a 0.449,0.449 0 0 1 -0.636,0 z"
     id="path466" />
  <path
     fill="none"
     d="m 1,2050 h 16 v 16 H 1 Z"
     id="path468" />
  <path
     d="m 14.821,2086.821 -5.019,5.018 a 0.412,0.412 0 0 1 -0.588,0 l -0.054,-0.053 a 0.415,0.415 0 0 1 -0.121,-0.295 c 0,-0.11 0.042,-0.216 0.121,-0.294 l 5.019,-5.019 -0.735,-0.734 -5.018,5.018 A 1.45,1.45 0 0 0 8,2091.491 c 0,0.39 0.152,0.754 0.426,1.029 l 0.055,0.053 c 0.273,0.277 0.639,0.427 1.028,0.427 0.389,0 0.754,-0.15 1.028,-0.427 l 5.018,-5.018 z"
     id="path471"
     style="fill:#221f1f" />
  <path
     d="m 19,2075 a 7,7 0 1 0 0,14 7,7 0 0 0 0,-14 z m 0,13 a 6,6 0 1 1 0,-12 6,6 0 0 1 0,12 z"
     id="path473"
     style="fill:#221f1f" />
  <path
     opacity="0.2"
     fill="none"
     d="m 1,2102 h 32 v 32 H 1 Z"
     id="path478" />
  <path
     d="m 14.821,2120.821 -5.019,5.018 a 0.412,0.412 0 0 1 -0.588,0 l -0.054,-0.053 a 0.415,0.415 0 0 1 -0.121,-0.295 c 0,-0.11 0.042,-0.216 0.121,-0.294 l 5.019,-5.019 -0.735,-0.734 -5.018,5.018 A 1.45,1.45 0 0 0 8,2125.491 c 0,0.39 0.152,0.754 0.426,1.029 l 0.055,0.053 c 0.273,0.277 0.639,0.427 1.028,0.427 0.389,0 0.754,-0.15 1.028,-0.427 l 5.018,-5.018 z"
     id="path480"
     style="fill:#ffffff" />
  <path
     d="m 19,2109 a 7,7 0 1 0 0,14 7,7 0 0 0 0,-14 z m 0,13 a 6,6 0 1 1 0,-12 6,6 0 0 1 0,12 z"
     id="path482"
     style="fill:#ffffff" />
  <path
     fill="#d63333"
     d="M 3.763,2162 H 1.652 l 4.584,-26 h 2.112 z"
     id="path487" />
  <path
     fill="#e2e2e2"
     d="M 3.763,2190 H 1.652 l 4.584,-26 h 2.111 z"
     id="path490" />
  <path
     d="M 3.763,2218 H 1.652 l 4.584,-26 h 2.111 z"
     id="path493" />
  <path
     fill="#ffc400"
     d="m 31,2235 c 0,-2.735 -0.744,-5.292 -2.023,-7.5 H 3.024 a 14.903,14.903 0 0 0 0,15 H 28.977 A 14.912,14.912 0 0 0 31,2235 Z"
     id="path496" />
  <path
     fill="#c60b1e"
     d="M 28.977,2242.5 H 3.024 c 2.595,4.479 7.428,7.5 12.976,7.5 5.548,0 10.382,-3.021 12.977,-7.5 z M 16,2220 c -5.547,0 -10.381,3.021 -12.976,7.5 H 28.977 C 26.381,2223.021 21.548,2220 16,2220 Z"
     id="path498" />
  <path
     fill="#49a3db"
     fill-rule="evenodd"
     d="m 13.072,2255.07 c 0.026,3.66 -2.727,7.893 -7.821,7.93 A 7.857,7.857 0 0 1 1,2261.786 a 6.3,6.3 0 0 0 0.66,0.033 5.568,5.568 0 0 0 3.432,-1.208 2.774,2.774 0 0 1 -2.601,-1.904 2.812,2.812 0 0 0 1.252,-0.057 2.768,2.768 0 0 1 -2.242,-2.699 c 0.376,0.17 0.803,0.292 1.255,0.303 a 2.77,2.77 0 0 1 -0.881,-3.69 7.869,7.869 0 0 0 5.725,2.856 2.768,2.768 0 0 1 2.672,-3.42 2.764,2.764 0 0 1 2.028,0.86 5.487,5.487 0 0 0 1.755,-0.685 2.781,2.781 0 0 1 -1.21,1.54 5.404,5.404 0 0 0 1.587,-0.446 5.638,5.638 0 0 1 -1.368,1.443 c 0.005,0.117 0.007,0.238 0.008,0.357 z"
     id="path501" />
  <path
     fill="#55acee"
     d="m 23.807,2277.414 c 0.007,0.149 0.01,0.303 0.01,0.454 0.033,4.66 -3.47,10.049 -9.954,10.094 a 9.979,9.979 0 0 1 -5.41,-1.545 c 0.277,0.027 0.558,0.044 0.839,0.042 a 7.103,7.103 0 0 0 4.369,-1.536 3.534,3.534 0 0 1 -3.311,-2.424 c 0.216,0.039 0.438,0.059 0.663,0.057 0.319,0 0.649,-0.045 0.948,-0.129 a 3.498,3.498 0 0 1 -2.836,-3.436 v -0.042 c 0.438,0.259 1.004,0.413 1.581,0.427 a 3.53,3.53 0 0 1 -1.135,-4.695 10.004,10.004 0 0 0 7.284,3.632 3.52,3.52 0 0 1 3.4,-4.351 3.517,3.517 0 0 1 2.58,1.093 6.968,6.968 0 0 0 2.233,-0.871 3.546,3.546 0 0 1 -1.539,1.961 6.857,6.857 0 0 0 2.019,-0.569 7.178,7.178 0 0 1 -1.741,1.838 z"
     id="path504" />
  <path
     fill="#ffffff"
     d="m 23.807,2311.414 c 0.007,0.149 0.01,0.303 0.01,0.454 0.033,4.66 -3.47,10.049 -9.954,10.094 a 9.979,9.979 0 0 1 -5.41,-1.545 c 0.277,0.027 0.558,0.044 0.839,0.042 a 7.103,7.103 0 0 0 4.369,-1.536 3.534,3.534 0 0 1 -3.311,-2.424 c 0.216,0.039 0.438,0.059 0.663,0.057 0.319,0 0.649,-0.045 0.948,-0.129 a 3.498,3.498 0 0 1 -2.836,-3.436 v -0.042 c 0.438,0.259 1.004,0.413 1.581,0.427 a 3.53,3.53 0 0 1 -1.135,-4.695 10.004,10.004 0 0 0 7.284,3.632 3.52,3.52 0 0 1 3.4,-4.351 3.517,3.517 0 0 1 2.58,1.093 6.968,6.968 0 0 0 2.233,-0.871 3.546,3.546 0 0 1 -1.539,1.961 6.857,6.857 0 0 0 2.019,-0.569 7.178,7.178 0 0 1 -1.741,1.838 z"
     id="path507" />
  <path
     fill="#03a3d8"
     d="m 20.084,2342.046 c 0.007,0.127 0.01,0.26 0.01,0.39 0.027,3.993 -2.975,8.613 -8.533,8.65 a 8.536,8.536 0 0 1 -4.636,-1.323 6.11,6.11 0 0 0 4.464,-1.281 3.029,3.029 0 0 1 -2.838,-2.078 3.137,3.137 0 0 0 1.38,-0.06 3.004,3.004 0 0 1 -2.43,-2.947 v -0.036 c 0.375,0.222 0.86,0.354 1.355,0.366 a 3.027,3.027 0 0 1 -0.973,-4.024 8.578,8.578 0 0 0 6.244,3.113 3.016,3.016 0 0 1 2.914,-3.729 3.018,3.018 0 0 1 2.212,0.937 5.987,5.987 0 0 0 1.914,-0.747 3.03,3.03 0 0 1 -1.32,1.68 5.831,5.831 0 0 0 1.73,-0.486 c -0.4,0.608 -0.904,1.14 -1.492,1.574 z"
     id="path510" />
  <path
     fill="#ffffff"
     d="m 20.084,2369.046 c 0.007,0.127 0.01,0.26 0.01,0.39 0.027,3.993 -2.975,8.613 -8.533,8.65 a 8.536,8.536 0 0 1 -4.636,-1.323 6.11,6.11 0 0 0 4.464,-1.281 3.029,3.029 0 0 1 -2.838,-2.078 3.137,3.137 0 0 0 1.38,-0.06 3.004,3.004 0 0 1 -2.43,-2.947 v -0.036 c 0.375,0.222 0.86,0.354 1.355,0.366 a 3.027,3.027 0 0 1 -0.973,-4.024 8.578,8.578 0 0 0 6.244,3.113 3.016,3.016 0 0 1 2.914,-3.729 3.018,3.018 0 0 1 2.212,0.937 5.987,5.987 0 0 0 1.914,-0.747 3.03,3.03 0 0 1 -1.32,1.68 5.831,5.831 0 0 0 1.73,-0.486 c -0.4,0.608 -0.904,1.14 -1.492,1.574 z"
     id="path513" />
  <path
     fill="none"
     d="m 1,2387 h 16 v 16 H 1 Z"
     id="path516" />
  <path
     fill="#ffffff"
     d="m 9,2389.276 a 5.74,5.74 0 0 1 3.937,1.568 l -1.42,0.516 4.345,3.64 0.982,-5.584 -1.6,0.584 a 8.002,8.002 0 0 0 -13.814,2.402 l 2.15,0.737 A 5.732,5.732 0 0 1 9,2389.275 Z m 0,11.45 A 5.73,5.73 0 0 1 5.067,2399.16 L 6.482,2398.64 2.137,2395 1.155,2400.583 2.757,2400 A 8.01,8.01 0 0 0 9,2403 c 3.548,0 6.71,-2.38 7.688,-5.783 l -2.186,-0.63 a 5.75,5.75 0 0 1 -5.503,4.138 z"
     id="path518" />
  <path
     fill="none"
     d="m 1,2387 h 16 v 16 H 1 Z"
     id="path520" />
  <path
     fill="none"
     d="m 1,2405 h 52 v 44 H 1 Z"
     id="path523" />
  <path
     d="m 27,2421 a 4.5,4.5 0 1 0 0,-9 4.5,4.5 0 0 0 0,9 z m 0,-8 a 3.5,3.5 0 1 1 0,7 3.5,3.5 0 1 1 0,-7 z m 4,9 h -8 a 3,3 0 0 0 -3,2.999 v 5 h 14 v -5 A 3,3 0 0 0 31,2422 Z m 0,6.999 v -3 h -1 v 3 h -6 v -3 h -1 v 3 h -2 v -4 a 2,2 0 0 1 2,-2 h 8 a 2,2 0 0 1 2,2 v 4 z"
     id="path525"
     style="fill:#ffffff" />
</svg>
